<?xml version="1.0" encoding="utf-8"?>
<!-- Generator: Adobe Illustrator 16.0.0, SVG Export Plug-In . SVG Version: 6.00 Build 0)  -->
<!DOCTYPE svg PUBLIC "-//W3C//DTD SVG 1.1//EN" "http://www.w3.org/Graphics/SVG/1.1/DTD/svg11.dtd">
<svg version="1.1" id="Calque_1" xmlns="http://www.w3.org/2000/svg" xmlns:xlink="http://www.w3.org/1999/xlink" x="0px" y="0px"
	 width="1269.667px" height="370px" viewBox="0 0 1269.667 370" enable-background="new 0 0 1269.667 370" xml:space="preserve">
<polygon fill="#757575" points="972.667,214.105 1.165,214.105 1.165,-1 1269.667,-1 1116.505,157.088 1006.74,156.105 
	1007.564,177.868 989.244,177.863 989.265,197.757 973.044,197.566 "/>
<g>
	<line fill="none" stroke="#424242" stroke-width="5" stroke-miterlimit="10" x1="352" y1="215.105" x2="352" y2="288.771"/>
	<line fill="none" stroke="#424242" stroke-width="5" stroke-miterlimit="10" x1="391" y1="215.105" x2="391" y2="288.771"/>
	<line fill="none" stroke="#424242" stroke-width="5" stroke-miterlimit="10" x1="352.667" y1="274.771" x2="391" y2="274.771"/>
	<line fill="none" stroke="#424242" stroke-width="5" stroke-miterlimit="10" x1="352" y1="250.938" x2="391" y2="250.938"/>
	<line fill="none" stroke="#424242" stroke-width="5" stroke-miterlimit="10" x1="352" y1="224.438" x2="391" y2="224.438"/>
</g>
<g>
	<circle stroke="#000000" stroke-width="5" stroke-miterlimit="10" cx="393.948" cy="205.49" r="12.385"/>
	
		<rect x="378.774" y="215.915" transform="matrix(-0.927 -0.375 0.375 -0.927 653.032 586.394)" stroke="#000000" stroke-width="5" stroke-miterlimit="10" width="9.582" height="27.501"/>
	<line fill="none" stroke="#000000" stroke-width="5" stroke-miterlimit="10" x1="373.967" y1="240.6" x2="363" y2="251.938"/>
	<line fill="none" stroke="#000000" stroke-width="5" stroke-miterlimit="10" x1="363" y1="249.938" x2="363" y2="272.771"/>
	<line fill="none" stroke="#000000" stroke-width="5" stroke-miterlimit="10" x1="382.85" y1="244.189" x2="381.563" y2="274.771"/>
	<line fill="none" stroke="#000000" stroke-width="5" stroke-miterlimit="10" x1="393.161" y1="218.697" x2="401" y2="251.938"/>
	<line fill="none" stroke="#000000" stroke-width="5" stroke-miterlimit="10" x1="382.85" y1="214.986" x2="373.967" y2="222.697"/>
	<line fill="none" stroke="#000000" stroke-width="5" stroke-miterlimit="10" x1="374.967" y1="221.697" x2="364" y2="224.771"/>
</g>
<g>
	<circle stroke="#000000" stroke-width="5" stroke-miterlimit="10" cx="439.616" cy="294.929" r="12.385"/>
	
		<rect x="434.442" y="309.36" transform="matrix(-0.9988 0.0495 -0.0495 -0.9988 893.9316 624.0675)" stroke="#000000" stroke-width="5" stroke-miterlimit="10" width="9.582" height="27.5"/>
	
		<line fill="none" stroke="#000000" stroke-width="5" stroke-miterlimit="10" x1="435.633" y1="338.036" x2="424.667" y2="349.376"/>
	
		<line fill="none" stroke="#000000" stroke-width="5" stroke-miterlimit="10" x1="424.915" y1="348.652" x2="414.419" y2="368.934"/>
	<line fill="none" stroke="#000000" stroke-width="5" stroke-miterlimit="10" x1="443.743" y1="332.807" x2="450.481" y2="370"/>
	<line fill="none" stroke="#000000" stroke-width="5" stroke-miterlimit="10" x1="443.495" y1="311.264" x2="460" y2="335.762"/>
	
		<line fill="none" stroke="#000000" stroke-width="5" stroke-miterlimit="10" x1="432.151" y1="309.313" x2="416.419" y2="298.544"/>
	<line fill="none" stroke="#000000" stroke-width="5" stroke-miterlimit="10" x1="417.419" y1="299.544" x2="410" y2="283.545"/>
</g>
<g>
	<line fill="none" stroke="#424242" stroke-width="5" stroke-miterlimit="10" x1="319.948" y1="325.66" x2="302.433" y2="366.043"/>
	
		<line fill="none" stroke="#424242" stroke-width="5" stroke-miterlimit="10" x1="354.153" y1="344.809" x2="344.907" y2="366.127"/>
	<line fill="none" stroke="#424242" stroke-width="5" stroke-miterlimit="10" x1="306.136" y1="359.18" x2="328.776" y2="369"/>
	
		<line fill="none" stroke="#424242" stroke-width="5" stroke-miterlimit="10" x1="315.008" y1="337.049" x2="350.788" y2="352.566"/>
</g>
<circle fill="none" stroke="#424242" stroke-width="40" stroke-miterlimit="10" cx="41.821" cy="209.41" r="153.296"/>
<line fill="none" stroke="#424242" stroke-width="80" stroke-miterlimit="10" x1="-143.771" y1="137.586" x2="217.352" y2="278.383"/>
<line fill="none" stroke="#424242" stroke-width="80" stroke-miterlimit="10" x1="108.215" y1="32.433" x2="-31.297" y2="390.262"/>
<circle fill="none" stroke="#424242" stroke-width="40" stroke-miterlimit="10" cx="39.689" cy="209.637" r="55.265"/>
<line fill="none" stroke="#424242" stroke-width="80" stroke-miterlimit="10" x1="189.216" y1="141.646" x2="215.096" y2="128.584"/>
<line fill="none" stroke="#424242" stroke-width="80" stroke-miterlimit="10" x1="117.311" y1="353.904" x2="131.48" y2="379.195"/>
<line fill="none" stroke="#424242" stroke-width="80" stroke-miterlimit="10" x1="-22.316" y1="60.905" x2="-33.34" y2="34.094"/>
<circle fill="none" stroke="#424242" stroke-width="80" stroke-miterlimit="10" cx="488.012" cy="-112.643" r="185.237"/>
<line fill="none" stroke="#424242" stroke-width="100" stroke-miterlimit="10" x1="446.015" y1="-257.299" x2="538.008" y2="115.584"/>
<line fill="none" stroke="#424242" stroke-width="100" stroke-miterlimit="10" x1="358.799" y1="-186.573" x2="691.951" y2="4.519"/>
<line fill="none" stroke="#424242" stroke-width="100" stroke-miterlimit="10" x1="569.182" y1="-233.589" x2="344.311" y2="77.76"/>
<polygon fill="#414142" points="863.667,194.584 705.667,194.584 691.667,214.348 878.667,214.348 "/>
<polygon fill="#414142" points="732.726,19.771 771.855,20.219 772.119,0.378 732.992,0.099 "/>
<polygon fill="#414142" points="797.726,19.771 836.855,20.219 837.119,0.378 797.992,0.099 "/>
<line fill="none" stroke="#424242" stroke-width="18" stroke-miterlimit="10" x1="785.167" y1="27.099" x2="785.167" y2="151.105"/>
<line fill="none" stroke="#424242" stroke-width="6" stroke-miterlimit="10" x1="785.167" y1="27.099" x2="785.167" y2="0.099"/>
<line fill="none" stroke="#424242" stroke-width="6" stroke-miterlimit="10" x1="924.667" y1="0.099" x2="924.667" y2="56.075"/>
<line fill="none" stroke="#424242" stroke-width="6" stroke-miterlimit="10" x1="924.667" y1="56.075" x2="889.152" y2="91.59"/>
<line fill="none" stroke="#424242" stroke-width="6" stroke-miterlimit="10" x1="924.667" y1="56.075" x2="959.181" y2="90.59"/>
<line fill="none" stroke="#424242" stroke-width="6" stroke-miterlimit="10" x1="958.181" y1="88.59" x2="958.181" y2="126.584"/>
<line fill="none" stroke="#424242" stroke-width="6" stroke-miterlimit="10" x1="889.152" y1="90.59" x2="889.152" y2="127.584"/>
<line fill="none" stroke="#424242" stroke-width="14" stroke-miterlimit="10" x1="883.667" y1="127.584" x2="963.181" y2="127.584"/>
<g>
	<circle stroke="#000000" stroke-width="5" stroke-miterlimit="10" cx="921.541" cy="46.417" r="12.385"/>
	
		<rect x="916.387" y="60.855" transform="matrix(-0.9988 0.0495 -0.0495 -0.9988 1844.9211 103.4921)" stroke="#000000" stroke-width="5" stroke-miterlimit="10" width="9.582" height="27.5"/>
	<line fill="none" stroke="#000000" stroke-width="5" stroke-miterlimit="10" x1="917.556" y1="89.524" x2="911.589" y2="101.864"/>
	<line fill="none" stroke="#000000" stroke-width="5" stroke-miterlimit="10" x1="911.837" y1="101.141" x2="910.343" y2="121.42"/>
	<line fill="none" stroke="#000000" stroke-width="5" stroke-miterlimit="10" x1="925.667" y1="84.293" x2="932.406" y2="121.488"/>
	<line fill="none" stroke="#000000" stroke-width="5" stroke-miterlimit="10" x1="925.417" y1="62.75" x2="941.923" y2="87.249"/>
	<line fill="none" stroke="#000000" stroke-width="5" stroke-miterlimit="10" x1="916.076" y1="61.801" x2="900.343" y2="81.032"/>
</g>
</svg>
