<?xml version="1.0" encoding="utf-8"?>
<!-- Generator: Adobe Illustrator 16.0.0, SVG Export Plug-In . SVG Version: 6.00 Build 0)  -->
<!DOCTYPE svg PUBLIC "-//W3C//DTD SVG 1.1//EN" "http://www.w3.org/Graphics/SVG/1.1/DTD/svg11.dtd">
<svg version="1.1" id="clavier_xA0_Image_1_" xmlns="http://www.w3.org/2000/svg" xmlns:xlink="http://www.w3.org/1999/xlink"
	 x="0px" y="0px" width="359px" height="372px" viewBox="0 0 359 372" enable-background="new 0 0 359 372" xml:space="preserve">
<path opacity="0.9" enable-background="new    " d="M6,185.5C6,365,6,365,177.5,365C354,365,354,365,354,185.5S354,6,177.5,6
	C6,6,6,6,6,185.5z"/>
<path fill="none" stroke="#FFFFFF" stroke-width="25" stroke-miterlimit="10" d="M272.055,307.838
	C246.999,326.174,216.102,337,182.674,337c-83.671,0-151.5-67.829-151.5-151.5S99.003,34,182.674,34
	c30.544,0,58.979,9.039,82.771,24.588"/>
<g>
	<path fill="none" stroke="#FFFFFF" stroke-width="25" stroke-miterlimit="10" d="M182.248,184.813
		c0-7.019,5.068-45.86-9.696-54.125c-18.777-10.507-60.722-10.418-77.898-1.195c-7.137,3.833-8.401,19.202-8.401,23.59"/>
	
		<line fill="none" stroke="#FFFFFF" stroke-width="25" stroke-miterlimit="10" x1="191.396" y1="235.033" x2="78.327" y2="235.033"/>
	<path fill="none" stroke="#FFFFFF" stroke-width="25" stroke-miterlimit="10" d="M89.39,247.184
		c0-14.189-3.537-36.563,11.99-53.188c12.381-13.258,64.098-9.28,93.916-9.28"/>
</g>
<g>
	<path fill="none" stroke="#FFFFFF" stroke-width="25" stroke-miterlimit="10" d="M312.737,182.165
		c0-6.284,1.929-31.651-1.563-45.607c-3.433-13.727-89.211-13.796-91.148-2.875c-5.34,30.075-4.92,76.319-1.861,95.824
		c2.479,15.812,66.246,18.642,88.514,7.075c7.504-3.896,5.417-18.296,5.417-18.296"/>
	
		<line fill="none" stroke="#FFFFFF" stroke-width="25" stroke-miterlimit="10" x1="219.439" y1="182.525" x2="325.548" y2="182.165"/>
</g>
</svg>
