<?xml version="1.0" encoding="utf-8"?>
<!-- Generator: Adobe Illustrator 16.0.0, SVG Export Plug-In . SVG Version: 6.00 Build 0)  -->
<!DOCTYPE svg PUBLIC "-//W3C//DTD SVG 1.1//EN" "http://www.w3.org/Graphics/SVG/1.1/DTD/svg11.dtd">
<svg version="1.1" id="Calque_1" xmlns="http://www.w3.org/2000/svg" xmlns:xlink="http://www.w3.org/1999/xlink" x="0px" y="0px"
	 width="112.143px" height="103.572px" viewBox="0 0 112.143 103.572" enable-background="new 0 0 112.143 103.572"
	 xml:space="preserve">
<rect fill="#E8453A" width="112.143" height="103.572"/>
<g opacity="0.3">
	<g>
		<rect x="25.715" y="23.91" fill="#020304" width="56.322" height="10.514"/>
		<rect x="43.076" y="17.302" fill="#020304" width="21.6" height="7.745"/>
		<path fill="#020304" d="M75.146,38.929H64.676v38.622h7.468L75.146,38.929z M75.546,83.772h-42.59l-3.755-49.349H78.55
			L75.546,83.772z M43.076,38.929h-9.721l2.252,38.622h7.468V38.929z M60.613,39.037H47.889v38.62h12.726L60.613,39.037
			L60.613,39.037z"/>
	</g>
	<g>
		<rect x="26.786" y="24.98" fill="#020304" width="56.322" height="10.514"/>
		<rect x="44.147" y="18.373" fill="#020304" width="21.599" height="7.745"/>
		<path fill="#020304" d="M76.218,40.001H65.745v38.62h7.469L76.218,40.001z M76.617,84.844H34.026l-3.755-49.35H79.62
			L76.617,84.844z M44.147,40.001h-9.722l2.253,38.62h7.468L44.147,40.001L44.147,40.001z M61.685,40.107H48.959v38.62h12.724
			v-38.62H61.685z"/>
	</g>
	<g>
		<rect x="27.856" y="26.052" fill="#020304" width="56.322" height="10.513"/>
		<rect x="45.218" y="19.444" fill="#020304" width="21.598" height="7.744"/>
		<path fill="#020304" d="M77.289,41.071H66.816v38.621h7.469L77.289,41.071z M77.688,85.913H35.096l-3.754-49.348H80.69
			L77.688,85.913z M45.218,41.071h-9.721l2.253,38.621h7.468V41.071L45.218,41.071z M62.755,41.178H50.03v38.62h12.725V41.178z"/>
	</g>
	<g>
		<rect x="28.927" y="27.122" fill="#020304" width="56.321" height="10.514"/>
		<rect x="46.288" y="20.515" fill="#020304" width="21.599" height="7.744"/>
		<path fill="#020304" d="M78.358,42.142H67.887v38.62h7.468L78.358,42.142z M78.759,86.984H36.167l-3.754-49.349h49.349
			L78.759,86.984z M46.288,42.142h-9.722l2.253,38.62h7.469V42.142z M63.826,42.248H51.101v38.621h12.726V42.248z"/>
	</g>
	<g>
		<rect x="29.997" y="28.193" fill="#020304" width="56.322" height="10.513"/>
		<rect x="47.359" y="21.584" fill="#020304" width="21.599" height="7.745"/>
		<path fill="#020304" d="M79.43,43.212H68.957v38.621h7.469L79.43,43.212z M79.829,88.055H37.238l-3.755-49.349h49.35
			L79.829,88.055z M47.359,43.212h-9.722l2.253,38.621h7.468V43.212z M64.896,43.319H52.171v38.62h12.726V43.319z"/>
	</g>
	<g>
		<rect x="31.068" y="29.263" fill="#020304" width="56.323" height="10.513"/>
		<rect x="48.429" y="22.655" fill="#020304" width="21.601" height="7.745"/>
		<path fill="#020304" d="M80.5,44.282H70.029v38.62h7.467L80.5,44.282z M80.9,89.126H38.309l-3.755-49.349h49.35L80.9,89.126z
			 M48.429,44.282h-9.721l2.253,38.62h7.468V44.282z M65.968,44.39H53.242v38.621h12.726V44.39z"/>
	</g>
	<g>
		<rect x="32.138" y="30.334" fill="#020304" width="56.323" height="10.513"/>
		<rect x="49.5" y="23.726" fill="#020304" width="21.599" height="7.745"/>
		<path fill="#020304" d="M81.571,45.354H71.1v38.62h7.469L81.571,45.354z M81.97,90.197H39.38l-3.755-49.349h49.349L81.97,90.197z
			 M49.5,45.354h-9.721l2.252,38.62H49.5V45.354z M67.037,45.46H54.313v38.621h12.725V45.46z"/>
	</g>
	<g>
		<rect x="33.209" y="31.404" fill="#020304" width="56.322" height="10.513"/>
		<rect x="50.57" y="24.796" fill="#020304" width="21.6" height="7.745"/>
		<path fill="#020304" d="M82.642,46.423H72.17v38.622h7.468L82.642,46.423z M83.041,91.268H40.45l-3.754-49.349h49.35
			L83.041,91.268z M50.57,46.423H40.85l2.253,38.622h7.468V46.423z M68.107,46.53H55.385v38.621h12.725V46.53H68.107z"/>
	</g>
	<g>
		<rect x="34.279" y="32.475" fill="#020304" width="56.322" height="10.513"/>
		<rect x="51.641" y="25.868" fill="#020304" width="21.599" height="7.744"/>
		<path fill="#020304" d="M83.713,47.495H73.239v38.62h7.469L83.713,47.495z M84.11,92.338H41.521l-3.755-49.349h49.35L84.11,92.338
			z M51.641,47.495h-9.721l2.252,38.62h7.469V47.495z M69.179,47.602H56.454v38.621h12.725V47.602z"/>
	</g>
	<g>
		<rect x="35.35" y="33.545" fill="#020304" width="56.322" height="10.514"/>
		<rect x="52.712" y="26.938" fill="#020304" width="21.6" height="7.745"/>
		<path fill="#020304" d="M84.782,48.565H74.311v38.621h7.468L84.782,48.565z M85.182,93.407h-42.59L38.836,44.06h49.349
			L85.182,93.407z M52.712,48.565h-9.721l2.253,38.621h7.467L52.712,48.565L52.712,48.565z M70.249,48.673H57.525v38.62H70.25
			L70.249,48.673L70.249,48.673z"/>
	</g>
	<g>
		<rect x="36.421" y="34.617" fill="#020304" width="56.322" height="10.513"/>
		<rect x="53.783" y="28.009" fill="#020304" width="21.599" height="7.745"/>
		<path fill="#020304" d="M85.853,49.636H75.382v38.621h7.467L85.853,49.636z M86.252,94.479h-42.59l-3.755-49.35h49.349
			L86.252,94.479z M53.783,49.636h-9.723l2.253,38.621h7.469L53.783,49.636L53.783,49.636z M71.319,49.743H58.595v38.621h12.725
			V49.743z"/>
	</g>
	<g>
		<rect x="37.491" y="35.688" fill="#020304" width="56.322" height="10.513"/>
		<rect x="54.854" y="29.079" fill="#020304" width="21.598" height="7.745"/>
		<path fill="#020304" d="M86.924,50.707H76.451v38.621h7.469L86.924,50.707z M87.323,95.55H44.732l-3.755-49.348h49.35
			L87.323,95.55z M54.854,50.707h-9.722l2.254,38.621h7.468V50.707z M72.391,50.813H59.666v38.62H72.39L72.391,50.813L72.391,50.813
			z"/>
	</g>
	<g>
		<rect x="38.563" y="36.758" fill="#020304" width="56.321" height="10.514"/>
		<rect x="55.924" y="30.15" fill="#020304" width="21.599" height="7.744"/>
		<path fill="#020304" d="M87.994,51.777H77.522v38.621h7.469L87.994,51.777z M88.395,96.621H45.803l-3.754-49.349h49.349
			L88.395,96.621z M55.924,51.777h-9.722l2.253,38.621h7.469V51.777z M73.461,51.883H60.737v38.621h12.724V51.883z"/>
	</g>
	<g>
		<rect x="39.632" y="37.829" fill="#020304" width="56.322" height="10.513"/>
		<rect x="56.995" y="31.221" fill="#020304" width="21.597" height="7.745"/>
		<path fill="#020304" d="M89.065,52.848H78.592V91.47h7.469L89.065,52.848z M89.465,97.69H46.874l-3.755-49.349h49.349
			L89.465,97.69z M56.995,52.848h-9.722l2.252,38.622h7.47V52.848z M74.533,52.955H61.807v38.62h12.727V52.955z"/>
	</g>
	<g>
		<rect x="40.705" y="38.898" fill="#020304" width="56.322" height="10.514"/>
		<rect x="58.064" y="32.291" fill="#020304" width="21.601" height="7.745"/>
		<path fill="#020304" d="M90.136,53.918H79.665v38.621h7.467L90.136,53.918z M90.536,98.762H47.945l-3.756-49.349h49.35
			L90.536,98.762z M58.064,53.918h-9.72l2.252,38.621h7.468V53.918z M75.603,54.025H62.877v38.62h12.726V54.025z"/>
	</g>
	<g>
		<rect x="41.774" y="39.97" fill="#020304" width="56.322" height="10.514"/>
		<rect x="59.136" y="33.362" fill="#020304" width="21.599" height="7.745"/>
		<path fill="#020304" d="M91.207,54.988H80.734v38.621h7.469L91.207,54.988z M91.605,99.833H49.015L45.26,50.484h49.349
			L91.605,99.833z M59.136,54.988h-9.722l2.253,38.621h7.468L59.136,54.988L59.136,54.988z M76.674,55.097H63.948v38.62h12.726
			V55.097z"/>
	</g>
	<g>
		<rect x="42.845" y="41.041" fill="#020304" width="56.322" height="10.513"/>
		<rect x="60.205" y="34.432" fill="#020304" width="21.6" height="7.744"/>
		<path fill="#020304" d="M92.276,56.06H81.805v38.62h7.469L92.276,56.06z M92.677,100.903H50.085l-3.754-49.349H95.68
			L92.677,100.903z M60.205,56.06h-9.72l2.253,38.62h7.467V56.06z M77.744,56.166H65.02v38.62h12.725V56.166z"/>
	</g>
	<g>
		<rect x="43.915" y="42.111" fill="#020304" width="56.322" height="10.513"/>
		<rect x="61.276" y="35.504" fill="#020304" width="21.6" height="7.744"/>
		<path fill="#020304" d="M93.348,57.13H82.876v38.62h7.469L93.348,57.13z M93.747,101.974h-42.59l-3.755-49.35h49.35
			L93.747,101.974z M61.276,57.13h-9.721l2.253,38.62h7.468V57.13z M78.815,57.237H66.09v38.621h12.726V57.237z"/>
	</g>
	<g>
		<rect x="44.985" y="43.182" fill="#020304" width="56.322" height="10.513"/>
		<rect x="62.347" y="36.574" fill="#020304" width="21.6" height="7.745"/>
		<path fill="#020304" d="M94.419,58.201H83.947v38.62h7.468L94.419,58.201z M94.817,103.044H52.227l-3.755-49.349h49.35
			L94.817,103.044z M62.347,58.201h-9.72l2.252,38.62h7.468V58.201z M79.886,58.309H67.161v38.62h12.725V58.309z"/>
	</g>
	<g>
		<rect x="46.057" y="44.252" fill="#020304" width="56.322" height="10.514"/>
		<rect x="63.418" y="37.645" fill="#020304" width="21.6" height="7.745"/>
		<path fill="#020304" d="M95.489,59.271H85.017v38.62h7.468L95.489,59.271z M95.888,104.115h-42.59l-3.755-49.35h49.35
			L95.888,104.115z M63.418,59.271h-9.721l2.253,38.62h7.468V59.271z M80.956,59.378H68.23v38.62h12.726V59.378z"/>
	</g>
	<g>
		<rect x="47.127" y="45.323" fill="#020304" width="56.322" height="10.514"/>
		<rect x="64.489" y="38.714" fill="#020304" width="21.599" height="7.745"/>
		<path fill="#020304" d="M96.561,60.343H86.088v38.62h7.468L96.561,60.343z M96.959,105.186H54.368l-3.755-49.349h49.35
			L96.959,105.186z M64.489,60.343h-9.722l2.254,38.62h7.468V60.343z M82.026,60.449H69.301v38.62h12.726V60.449z"/>
	</g>
	<g>
		<rect x="48.198" y="46.394" fill="#020304" width="56.321" height="10.513"/>
		<rect x="65.56" y="39.786" fill="#020304" width="21.599" height="7.745"/>
		<path fill="#020304" d="M97.63,61.413H87.158v38.621h7.469L97.63,61.413z M98.03,106.256H55.438l-3.754-49.35h49.35L98.03,106.256
			z M65.56,61.413h-9.723l2.254,38.621h7.469V61.413z M83.097,61.52H70.372v38.622h12.725V61.52z"/>
	</g>
	<g>
		<rect x="49.269" y="47.464" fill="#020304" width="56.322" height="10.513"/>
		<rect x="66.63" y="40.856" fill="#020304" width="21.599" height="7.744"/>
		<path fill="#020304" d="M98.7,62.483H88.229v38.621h7.469L98.7,62.483z M99.101,107.327h-42.59l-3.755-49.35h49.349
			L99.101,107.327z M66.63,62.483h-9.722l2.253,38.621h7.469V62.483z M84.168,62.591H71.443v38.621h12.725V62.591z"/>
	</g>
	<g>
		<rect x="50.339" y="48.535" fill="#020304" width="56.322" height="10.514"/>
		<rect x="67.7" y="41.927" fill="#020304" width="21.6" height="7.745"/>
		<path fill="#020304" d="M99.771,63.554H89.3v38.622h7.468L99.771,63.554z M100.172,108.396H57.581l-3.756-49.349h49.35
			L100.172,108.396z M67.7,63.554h-9.72l2.252,38.622h7.469L67.7,63.554L67.7,63.554z M85.238,63.662H72.513v38.619h12.726V63.662z"
			/>
	</g>
	<g>
		<rect x="51.41" y="49.604" fill="#020304" width="56.321" height="10.515"/>
		<rect x="68.771" y="42.998" fill="#020304" width="21.599" height="7.745"/>
		<path fill="#020304" d="M100.843,64.623H90.37v38.622h7.469L100.843,64.623z M101.241,109.468H58.65l-3.754-49.349h49.349
			L101.241,109.468z M68.771,64.623H59.05l2.253,38.622h7.469V64.623z M86.309,64.731H73.584v38.62h12.725V64.731z"/>
	</g>
	<g>
		<rect x="52.48" y="50.676" fill="#020304" width="56.322" height="10.514"/>
		<rect x="69.842" y="44.067" fill="#020304" width="21.6" height="7.745"/>
		<path fill="#020304" d="M101.913,65.695H91.441v38.621h7.468L101.913,65.695z M102.312,110.538H59.721L55.967,61.19h49.349
			L102.312,110.538z M69.842,65.695h-9.721l2.252,38.621h7.469V65.695z M87.379,65.803H74.655v38.62h12.724V65.803z"/>
	</g>
	<g>
		<rect x="53.551" y="51.747" fill="#020304" width="56.322" height="10.514"/>
		<rect x="70.913" y="45.14" fill="#020304" width="21.599" height="7.744"/>
		<path fill="#020304" d="M102.983,66.766H92.512v38.62h7.469L102.983,66.766z M103.383,111.609h-42.59l-3.755-49.349h49.349
			L103.383,111.609z M70.913,66.766h-9.722l2.253,38.62h7.469V66.766z M88.45,66.872H75.727v38.622H88.45V66.872z"/>
	</g>
	<g>
		<rect x="54.621" y="52.818" fill="#020304" width="56.322" height="10.513"/>
		<rect x="71.982" y="46.209" fill="#020304" width="21.6" height="7.744"/>
		<path fill="#020304" d="M104.054,67.838H93.582v38.619h7.469L104.054,67.838z M104.453,112.681H61.862l-3.754-49.35h49.35
			L104.453,112.681z M71.982,67.838h-9.719l2.252,38.619h7.467V67.838z M89.521,67.943H76.797v38.621h12.725V67.943z"/>
	</g>
	<g>
		<rect x="55.692" y="53.888" fill="#020304" width="56.322" height="10.513"/>
		<rect x="73.054" y="47.28" fill="#020304" width="21.6" height="7.744"/>
		<path fill="#020304" d="M105.125,68.907H94.653v38.621h7.468L105.125,68.907z M105.523,113.75h-42.59L59.179,64.4h49.349
			L105.523,113.75z M73.054,68.907h-9.721l2.254,38.621h7.467V68.907L73.054,68.907z M90.592,69.015H77.866v38.62h12.726V69.015z"/>
	</g>
	<g>
		<rect x="56.763" y="54.959" fill="#020304" width="56.322" height="10.514"/>
		<rect x="74.125" y="48.35" fill="#020304" width="21.599" height="7.745"/>
		<path fill="#020304" d="M106.197,69.979H95.724v38.619h7.469L106.197,69.979z M106.595,114.821H64.004l-3.756-49.349h49.351
			L106.595,114.821z M74.125,69.979h-9.722l2.253,38.619h7.469V69.979z M91.662,70.084H78.937v38.621h12.726V70.084z"/>
	</g>
	<g>
		<rect x="57.834" y="56.029" fill="#020304" width="56.321" height="10.514"/>
		<rect x="75.195" y="49.421" fill="#020304" width="21.599" height="7.745"/>
		<path fill="#020304" d="M107.267,71.048H96.794v38.621h7.469L107.267,71.048z M107.666,115.893H65.075l-3.755-49.35h49.35
			L107.666,115.893z M75.195,71.048h-9.722l2.253,38.621h7.469V71.048z M92.732,71.155H80.009v38.62h12.724V71.155z"/>
	</g>
	<g>
		<rect x="58.904" y="57.1" fill="#020304" width="56.322" height="10.513"/>
		<rect x="76.267" y="50.492" fill="#020304" width="21.598" height="7.745"/>
		<path fill="#020304" d="M108.337,72.119H97.864v38.62h7.469L108.337,72.119z M108.735,116.963H66.146l-3.755-49.351h49.349
			L108.735,116.963z M76.267,72.119h-9.723l2.254,38.62h7.467v-38.62H76.267z M93.804,72.226H81.078v38.621h12.726V72.226z"/>
	</g>
	<g>
		<rect x="59.976" y="58.17" fill="#020304" width="56.321" height="10.514"/>
		<rect x="77.336" y="51.562" fill="#020304" width="21.6" height="7.746"/>
		<path fill="#020304" d="M109.407,73.19H98.936v38.622h7.468L109.407,73.19z M109.807,118.033H67.216l-3.755-49.35h49.35
			L109.807,118.033z M77.336,73.19h-9.721l2.253,38.622h7.468V73.19z M94.874,73.297H82.148v38.62h12.726V73.297z"/>
	</g>
	<g>
		<rect x="61.046" y="59.24" fill="#020304" width="56.321" height="10.514"/>
		<rect x="78.408" y="52.633" fill="#020304" width="21.598" height="7.745"/>
		<path fill="#020304" d="M110.478,74.26h-10.472v38.622h7.468L110.478,74.26z M110.878,119.104H68.287l-3.755-49.349h49.349
			L110.878,119.104z M78.408,74.26h-9.722l2.252,38.622h7.468V74.26H78.408z M95.944,74.368H83.219v38.619h12.726V74.368z"/>
	</g>
	<g>
		<rect x="62.116" y="60.313" fill="#020304" width="56.322" height="10.513"/>
		<rect x="79.479" y="53.703" fill="#020304" width="21.599" height="7.745"/>
		<path fill="#020304" d="M111.549,75.331h-10.472v38.62h7.468L111.549,75.331z M111.947,120.174H69.356l-3.755-49.349h49.35
			L111.947,120.174z M79.479,75.331h-9.721l2.252,38.62h7.469V75.331z M97.015,75.438H84.29v38.62h12.725V75.438L97.015,75.438z"/>
	</g>
	<g>
		<rect x="63.186" y="61.383" fill="#020304" width="56.323" height="10.514"/>
		<rect x="80.548" y="54.775" fill="#020304" width="21.599" height="7.744"/>
		<path fill="#020304" d="M112.619,76.401h-10.473v38.621h7.469L112.619,76.401z M113.02,121.244H70.428l-3.755-49.348h49.351
			L113.02,121.244z M80.548,76.401h-9.721l2.253,38.621h7.468V76.401z M98.086,76.509H85.361v38.621h12.725V76.509z"/>
	</g>
	<g>
		<rect x="64.257" y="62.454" fill="#020304" width="56.322" height="10.513"/>
		<rect x="81.618" y="55.846" fill="#020304" width="21.6" height="7.744"/>
		<path fill="#020304" d="M113.689,77.472h-10.472v38.621h7.469L113.689,77.472z M114.089,122.315h-42.59l-3.755-49.349h49.349
			L114.089,122.315z M81.618,77.472h-9.72l2.252,38.621h7.468V77.472z M99.157,77.579H86.432V116.2h12.726V77.579z"/>
	</g>
	<g>
		<rect x="65.328" y="63.523" fill="#020304" width="56.322" height="10.514"/>
		<rect x="82.688" y="56.916" fill="#020304" width="21.601" height="7.745"/>
		<path fill="#020304" d="M114.76,78.543h-10.471v38.62h7.468L114.76,78.543z M115.159,123.387H72.568l-3.755-49.35h49.351
			L115.159,123.387z M82.688,78.543H72.97l2.252,38.62h7.467V78.543z M100.228,78.65H87.503v38.621h12.725V78.65z"/>
	</g>
	<g>
		<rect x="66.399" y="64.595" fill="#020304" width="56.322" height="10.514"/>
		<rect x="83.76" y="57.985" fill="#020304" width="21.601" height="7.745"/>
		<path fill="#020304" d="M115.832,79.614H105.36v38.62h7.468L115.832,79.614z M116.23,124.458H73.64l-3.755-49.35h49.35
			L116.23,124.458z M83.76,79.614h-9.721l2.253,38.62h7.468V79.614L83.76,79.614z M101.298,79.721H88.573v38.62h12.725V79.721z"/>
	</g>
	<g>
		<rect x="67.469" y="65.666" fill="#020304" width="56.322" height="10.513"/>
		<rect x="84.83" y="59.057" fill="#020304" width="21.6" height="7.745"/>
		<path fill="#020304" d="M116.902,80.685H106.43v38.62h7.469L116.902,80.685z M117.302,125.527H74.711l-3.756-49.349h49.351
			L117.302,125.527z M84.83,80.685h-9.722l2.254,38.62h7.468V80.685z M102.368,80.791H89.644v38.621h12.725V80.791z"/>
	</g>
	<g>
		<rect x="68.54" y="66.735" fill="#020304" width="56.322" height="10.514"/>
		<rect x="85.901" y="60.128" fill="#020304" width="21.599" height="7.743"/>
		<path fill="#020304" d="M117.973,81.755H107.5v38.62h7.469L117.973,81.755z M118.372,126.599h-42.59l-3.756-49.35h49.35
			L118.372,126.599z M85.901,81.755H76.18l2.253,38.62h7.469V81.755z M103.438,81.861H90.715v38.622h12.724V81.861z"/>
	</g>
	<g>
		<rect x="69.61" y="67.806" fill="#020304" width="56.321" height="10.514"/>
		<rect x="86.973" y="61.197" fill="#020304" width="21.598" height="7.745"/>
		<path fill="#020304" d="M119.043,82.825H108.57v38.621h7.469L119.043,82.825z M119.442,127.668h-42.59l-3.755-49.35h49.349
			L119.442,127.668z M86.973,82.825h-9.722l2.253,38.621h7.469V82.825z M104.511,82.933H91.785v38.62h12.726V82.933L104.511,82.933z
			"/>
	</g>
	<g>
		<rect x="70.682" y="68.876" fill="#020304" width="56.322" height="10.514"/>
		<rect x="88.043" y="62.269" fill="#020304" width="21.6" height="7.746"/>
		<path fill="#020304" d="M120.113,83.895h-10.471v38.623h7.467L120.113,83.895z M120.514,128.739H77.922l-3.754-49.35h49.348
			L120.514,128.739z M88.043,83.895h-9.721l2.253,38.623h7.468V83.895z M105.58,84.003H92.854v38.621h12.726V84.003z"/>
	</g>
	<g>
		<rect x="71.751" y="69.947" fill="#020304" width="56.322" height="10.514"/>
		<rect x="89.113" y="63.339" fill="#020304" width="21.599" height="7.745"/>
		<path fill="#020304" d="M121.185,84.967h-10.473v38.621h7.469L121.185,84.967z M121.583,129.811H78.992l-3.754-49.35h49.348
			L121.583,129.811z M89.113,84.967h-9.721l2.254,38.621h7.467V84.967z M106.65,85.074H93.926v38.619h12.725V85.074z"/>
	</g>
	<g>
		<rect x="72.822" y="71.019" fill="#020304" width="56.322" height="10.514"/>
		<rect x="90.184" y="64.411" fill="#020304" width="21.599" height="7.744"/>
		<path fill="#020304" d="M122.255,86.037h-10.472v38.62h7.468L122.255,86.037z M122.654,130.88H80.063l-3.754-49.348h49.349
			L122.654,130.88z M90.184,86.037h-9.721l2.253,38.62h7.468V86.037z M107.721,86.146H94.997v38.621h12.724V86.146z"/>
	</g>
	<g>
		<rect x="73.894" y="72.089" fill="#020304" width="56.321" height="10.514"/>
		<rect x="91.255" y="65.48" fill="#020304" width="21.599" height="7.744"/>
		<path fill="#020304" d="M123.325,87.106h-10.472v38.622h7.468L123.325,87.106z M123.725,131.951H81.134l-3.755-49.349h49.35
			L123.725,131.951z M91.255,87.106h-9.722l2.253,38.622h7.469V87.106z M108.792,87.215H96.067v38.621h12.725V87.215z"/>
	</g>
	<g>
		<rect x="74.963" y="73.16" fill="#020304" width="56.323" height="10.514"/>
		<rect x="92.324" y="66.552" fill="#020304" width="21.6" height="7.744"/>
		<path fill="#020304" d="M124.396,88.179h-10.471V126.8h7.468L124.396,88.179z M124.795,133.021H82.204l-3.754-49.35h49.35
			L124.795,133.021z M92.324,88.179h-9.72l2.252,38.621h7.468V88.179z M109.863,88.286H97.139v38.62h12.725V88.286L109.863,88.286z"
			/>
	</g>
	<g>
		<rect x="76.034" y="74.229" fill="#020304" width="56.323" height="10.514"/>
		<rect x="93.396" y="67.622" fill="#020304" width="21.599" height="7.745"/>
		<path fill="#020304" d="M125.467,89.25h-10.472v38.619h7.469L125.467,89.25z M125.866,134.093H83.274l-3.755-49.35h49.351
			L125.866,134.093z M93.396,89.25h-9.722l2.253,38.619h7.469V89.25z M110.934,89.357H98.209v38.62h12.725V89.357z"/>
	</g>
	<g>
		<rect x="77.104" y="75.301" fill="#020304" width="56.322" height="10.514"/>
		<rect x="94.467" y="68.692" fill="#020304" width="21.6" height="7.744"/>
		<path fill="#020304" d="M126.538,90.321h-10.472v38.619h7.469L126.538,90.321z M126.937,135.164H84.346l-3.755-49.35h49.35
			L126.937,135.164z M94.467,90.321h-9.722l2.254,38.619h7.468V90.321z M112.004,90.427H99.28v38.62h12.724V90.427z"/>
	</g>
	<g>
		<rect x="78.175" y="76.371" fill="#020304" width="56.323" height="10.513"/>
		<rect x="95.536" y="69.764" fill="#020304" width="21.6" height="7.744"/>
		<path fill="#020304" d="M127.608,91.391h-10.473v38.619h7.469L127.608,91.391z M128.008,136.233H85.417l-3.755-49.348h49.35
			L128.008,136.233z M95.536,91.391h-9.721l2.253,38.619h7.468V91.391L95.536,91.391z M113.075,91.496h-12.725v38.622h12.725V91.496
			z"/>
	</g>
	<g>
		<rect x="79.246" y="77.441" fill="#020304" width="56.322" height="10.514"/>
		<rect x="96.607" y="70.834" fill="#020304" width="21.6" height="7.744"/>
		<path fill="#020304" d="M128.679,92.462h-10.472v38.619h7.468L128.679,92.462z M129.078,137.305H86.487l-3.755-49.35h49.349
			L129.078,137.305z M96.607,92.462h-9.722l2.254,38.619h7.468V92.462L96.607,92.462z M114.146,92.568H101.42v38.621h12.726
			L114.146,92.568L114.146,92.568z"/>
	</g>
	<g>
		<rect x="80.317" y="78.511" fill="#020304" width="56.322" height="10.514"/>
		<rect x="97.679" y="71.905" fill="#020304" width="21.6" height="7.744"/>
		<path fill="#020304" d="M129.749,93.531h-10.471v38.621h7.467L129.749,93.531z M130.148,138.374h-42.59l-3.755-49.35h49.348
			L130.148,138.374z M97.679,93.531h-9.722l2.254,38.621h7.468V93.531z M115.216,93.639H102.49v38.622h12.726V93.639z"/>
	</g>
	<g>
		<rect x="81.388" y="79.583" fill="#020304" width="56.322" height="10.513"/>
		<rect x="98.749" y="72.975" fill="#020304" width="21.599" height="7.746"/>
		<path fill="#020304" d="M130.82,94.603h-10.472v38.62h7.468L130.82,94.603z M131.219,139.445H88.628l-3.755-49.348h49.349
			L131.219,139.445z M98.749,94.603h-9.722l2.254,38.62h7.468V94.603L98.749,94.603z M116.286,94.71h-12.725v38.62h12.725V94.71z"/>
	</g>
	<g>
		<rect x="82.459" y="80.653" fill="#020304" width="56.321" height="10.515"/>
		<rect x="99.82" y="74.046" fill="#020304" width="21.599" height="7.744"/>
		<path fill="#020304" d="M131.891,95.673h-10.473v38.621h7.469L131.891,95.673z M132.291,140.517H89.698l-3.754-49.349h49.35
			L132.291,140.517z M99.82,95.673h-9.722l2.253,38.621h7.469V95.673L99.82,95.673z M117.356,95.78h-12.725v38.621h12.725V95.78
			L117.356,95.78z"/>
	</g>
	<g>
		<rect x="83.528" y="81.725" fill="#020304" width="56.321" height="10.514"/>
		<rect x="100.89" y="75.117" fill="#020304" width="21.599" height="7.744"/>
		<path fill="#020304" d="M132.961,96.743h-10.473v38.622h7.469L132.961,96.743z M133.361,141.588H90.771l-3.755-49.35h49.348
			L133.361,141.588z M100.89,96.743h-9.721l2.253,38.622h7.468V96.743z M118.429,96.851h-12.726v38.62h12.726V96.851L118.429,96.851
			z"/>
	</g>
	<g>
		<rect x="84.599" y="82.795" fill="#020304" width="56.322" height="10.514"/>
		<rect x="101.961" y="76.187" fill="#020304" width="21.599" height="7.746"/>
		<path fill="#020304" d="M134.031,97.813H123.56v38.621h7.468L134.031,97.813z M134.432,142.657H91.841l-3.755-49.349h49.35
			L134.432,142.657z M101.961,97.813H92.24l2.252,38.621h7.468L101.961,97.813L101.961,97.813z M119.498,97.922h-12.725v38.62
			h12.725V97.922z"/>
	</g>
	<g>
		<rect x="85.671" y="83.866" fill="#020304" width="56.321" height="10.513"/>
		<rect x="103.031" y="77.258" fill="#020304" width="21.6" height="7.745"/>
		<path fill="#020304" d="M135.103,98.884h-10.472v38.622h7.469L135.103,98.884z M135.502,143.729H92.91l-3.754-49.35h49.349
			L135.502,143.729z M103.031,98.884h-9.72l2.253,38.622h7.467V98.884z M120.569,98.992h-12.726v38.62h12.726V98.992L120.569,98.992
			z"/>
	</g>
	<g>
		<rect x="86.74" y="84.938" fill="#020304" width="56.322" height="10.513"/>
		<rect x="104.103" y="78.328" fill="#020304" width="21.6" height="7.745"/>
		<path fill="#020304" d="M136.174,99.955h-10.472v38.622h7.469L136.174,99.955z M136.572,144.799H93.981L90.227,95.45h49.35
			L136.572,144.799z M104.103,99.955h-9.721l2.253,38.622h7.469L104.103,99.955L104.103,99.955z M121.64,100.063h-12.726v38.62
			h12.726V100.063L121.64,100.063z"/>
	</g>
	<g>
		<rect x="87.811" y="86.007" fill="#020304" width="56.323" height="10.514"/>
		<rect x="105.172" y="79.399" fill="#020304" width="21.6" height="7.743"/>
		<path fill="#020304" d="M137.243,101.026h-10.472v38.62h7.468L137.243,101.026z M137.644,145.87H95.052l-3.755-49.35h49.351
			L137.644,145.87z M105.172,101.026h-9.721l2.253,38.62h7.468V101.026L105.172,101.026z M122.71,101.133h-12.724v38.622h12.724
			V101.133L122.71,101.133z"/>
	</g>
	<g>
		<rect x="88.881" y="87.078" fill="#020304" width="56.323" height="10.513"/>
		<rect x="106.243" y="80.471" fill="#020304" width="21.6" height="7.743"/>
		<path fill="#020304" d="M138.314,102.097h-10.472v38.619h7.468L138.314,102.097z M138.714,146.941H96.123l-3.755-49.35h49.35
			L138.714,146.941z M106.243,102.097h-9.722l2.253,38.619h7.469V102.097z M123.782,102.202h-12.726v38.622h12.726V102.202z"/>
	</g>
	<g>
		<rect x="89.952" y="88.147" fill="#020304" width="56.322" height="10.514"/>
		<rect x="107.313" y="81.54" fill="#020304" width="21.6" height="7.745"/>
		<path fill="#020304" d="M139.385,103.168h-10.472v38.621h7.467L139.385,103.168z M139.784,148.011h-42.59l-3.756-49.35h49.349
			L139.784,148.011z M107.313,103.168h-9.721l2.253,38.621h7.468V103.168L107.313,103.168z M124.852,103.273h-12.726v38.622h12.726
			V103.273z"/>
	</g>
	<g>
		<rect x="91.023" y="89.218" fill="#020304" width="56.322" height="10.514"/>
		<rect x="108.385" y="82.61" fill="#020304" width="21.599" height="7.745"/>
		<path fill="#020304" d="M140.456,104.237h-10.472v38.621h7.468L140.456,104.237z M140.854,149.082H98.265L94.51,99.731h49.349
			L140.854,149.082z M108.385,104.237h-9.722l2.254,38.621h7.468V104.237L108.385,104.237z M125.922,104.345h-12.725v38.622h12.725
			V104.345L125.922,104.345z"/>
	</g>
	<g>
		<rect x="92.094" y="90.289" fill="#020304" width="56.322" height="10.514"/>
		<rect x="109.455" y="83.681" fill="#020304" width="21.599" height="7.745"/>
		<path fill="#020304" d="M141.527,105.309h-10.473v38.621h7.468L141.527,105.309z M141.925,150.153h-42.59l-3.754-49.351h49.348
			L141.925,150.153z M109.455,105.309h-9.722l2.254,38.621h7.468V105.309z M126.992,105.416h-12.725v38.62h12.725V105.416
			L126.992,105.416z"/>
	</g>
	<g>
		<rect x="93.165" y="91.359" fill="#020304" width="56.32" height="10.514"/>
		<rect x="110.525" y="84.752" fill="#020304" width="21.6" height="7.746"/>
		<path fill="#020304" d="M142.597,106.38h-10.472V145h7.468L142.597,106.38z M142.997,151.223h-42.591l-3.755-49.35H146
			L142.997,151.223z M110.525,106.38h-9.721l2.253,38.62h7.468V106.38z M128.063,106.486h-12.725v38.621h12.725V106.486z"/>
	</g>
	<g>
		<rect x="94.234" y="92.431" fill="#020304" width="56.322" height="10.515"/>
		<rect x="111.597" y="85.822" fill="#020304" width="21.599" height="7.745"/>
		<path fill="#020304" d="M143.667,107.45h-10.473v38.621h7.469L143.667,107.45z M144.067,152.292h-42.591l-3.755-49.347h49.349
			L144.067,152.292z M111.597,107.45h-9.721l2.253,38.621h7.468V107.45z M129.134,107.558h-12.725v38.619h12.725V107.558
			L129.134,107.558z"/>
	</g>
	<g>
		<rect x="95.306" y="93.501" fill="#020304" width="56.322" height="10.514"/>
		<rect x="112.667" y="86.893" fill="#020304" width="21.599" height="7.746"/>
		<path fill="#020304" d="M144.738,108.521h-10.472v38.62h7.468L144.738,108.521z M145.138,153.363h-42.592l-3.754-49.349h49.349
			L145.138,153.363z M112.667,108.521h-9.721l2.253,38.62h7.468V108.521L112.667,108.521z M130.204,108.629h-12.726v38.619h12.726
			V108.629L130.204,108.629z"/>
	</g>
	<g>
		<rect x="96.376" y="94.572" fill="#020304" width="56.322" height="10.514"/>
		<rect x="113.738" y="87.963" fill="#020304" width="21.599" height="7.745"/>
		<path fill="#020304" d="M145.81,109.592h-10.473v38.62h7.469L145.81,109.592z M146.208,154.435h-42.591l-3.755-49.349h49.35
			L146.208,154.435z M113.738,109.592h-9.721l2.253,38.62h7.469L113.738,109.592L113.738,109.592z M131.275,109.698h-12.725v38.621
			h12.725V109.698L131.275,109.698z"/>
	</g>
	<g>
		<rect x="97.446" y="95.644" fill="#020304" width="56.323" height="10.514"/>
		<rect x="114.808" y="89.035" fill="#020304" width="21.6" height="7.744"/>
		<path fill="#020304" d="M146.879,110.662h-10.472v38.621h7.468L146.879,110.662z M147.279,155.505h-42.592l-3.755-49.348h49.351
			L147.279,155.505z M114.808,110.662h-9.721l2.253,38.621h7.468V110.662z M132.347,110.769h-12.725v38.621h12.725V110.769z"/>
	</g>
	<g>
		<rect x="98.518" y="96.713" fill="#020304" width="56.322" height="10.514"/>
		<rect x="115.879" y="90.105" fill="#020304" width="21.6" height="7.744"/>
		<path fill="#020304" d="M147.95,111.733h-10.472v38.619h7.468L147.95,111.733z M148.35,156.576h-42.592l-3.754-49.35h49.35
			L148.35,156.576z M115.879,111.733h-9.722l2.253,38.619h7.469V111.733z M133.418,111.839h-12.726v38.622h12.726V111.839z"/>
	</g>
	<g>
		<rect x="99.588" y="97.784" fill="#020304" width="56.322" height="10.514"/>
		<rect x="116.949" y="91.177" fill="#020304" width="21.601" height="7.744"/>
		<path fill="#020304" d="M149.021,112.803H138.55v38.621h7.467L149.021,112.803z M149.42,157.646h-42.591l-3.755-49.35h49.349
			L149.42,157.646z M116.949,112.803h-9.721l2.253,38.621h7.468V112.803L116.949,112.803z M134.487,112.91h-12.726v38.622h12.726
			V112.91L134.487,112.91z"/>
	</g>
	<g>
		<rect x="100.658" y="98.854" fill="#020304" width="56.323" height="10.514"/>
		<rect x="118.021" y="92.246" fill="#020304" width="21.599" height="7.745"/>
		<path fill="#020304" d="M150.092,113.873h-10.473v38.622h7.468L150.092,113.873z M150.49,158.717H107.9l-3.755-49.35h49.349
			L150.49,158.717z M118.021,113.873h-9.722l2.253,38.622h7.468L118.021,113.873L118.021,113.873z M135.558,113.98h-12.725v38.621
			h12.725V113.98L135.558,113.98z"/>
	</g>
	<g>
		<rect x="101.729" y="99.925" fill="#020304" width="56.321" height="10.514"/>
		<rect x="119.092" y="93.317" fill="#020304" width="21.599" height="7.743"/>
		<path fill="#020304" d="M151.163,114.945H140.69v38.619h7.468L151.163,114.945z M151.561,159.788h-42.59l-3.755-49.35h49.349
			L151.561,159.788z M119.092,114.945h-9.722l2.253,38.619h7.469V114.945L119.092,114.945z M136.629,115.051h-12.725v38.62h12.725
			V115.051L136.629,115.051z"/>
	</g>
	<g>
		<rect x="102.801" y="100.996" fill="#020304" width="56.321" height="10.514"/>
		<rect x="120.162" y="94.389" fill="#020304" width="21.599" height="7.744"/>
		<path fill="#020304" d="M152.232,116.015H141.76v38.622h7.469L152.232,116.015z M152.632,160.857h-42.59l-3.755-49.348h49.349
			L152.632,160.857z M120.162,116.015h-9.722l2.253,38.622h7.469V116.015z M137.698,116.122h-12.725v38.622h12.725V116.122z"/>
	</g>
	<g>
		<rect x="103.87" y="102.066" fill="#020304" width="56.322" height="10.514"/>
		<rect x="121.232" y="95.458" fill="#020304" width="21.599" height="7.744"/>
		<path fill="#020304" d="M153.303,117.086H142.83v38.62h7.469L153.303,117.086z M153.703,161.929h-42.591l-3.755-49.349h49.349
			L153.703,161.929z M121.232,117.086h-9.722l2.253,38.62h7.469V117.086z M138.77,117.192h-12.725v38.621h12.725V117.192
			L138.77,117.192z"/>
	</g>
	<g>
		<rect x="104.941" y="103.137" fill="#020304" width="56.321" height="10.514"/>
		<rect x="122.303" y="96.529" fill="#020304" width="21.6" height="7.745"/>
		<path fill="#020304" d="M154.374,118.155h-10.472v38.622h7.468L154.374,118.155z M154.773,163h-42.591l-3.754-49.349h49.348
			L154.773,163z M122.303,118.155h-9.721l2.254,38.622h7.467V118.155z M139.84,118.264h-12.725v38.619h12.725V118.264z"/>
	</g>
	<g>
		<rect x="106.013" y="104.209" fill="#020304" width="56.321" height="10.513"/>
		<rect x="123.374" y="97.599" fill="#020304" width="21.599" height="7.746"/>
		<path fill="#020304" d="M155.445,119.227h-10.473v38.622h7.469L155.445,119.227z M155.844,164.069h-42.591l-3.755-49.348h49.35
			L155.844,164.069z M123.374,119.227h-9.721l2.253,38.622h7.468V119.227z M140.91,119.335h-12.725v38.619h12.725V119.335z"/>
	</g>
	<g>
		<rect x="107.082" y="105.279" fill="#020304" width="56.322" height="10.513"/>
		<rect x="124.443" y="98.67" fill="#020304" width="21.6" height="7.744"/>
		<path fill="#020304" d="M156.515,120.298h-10.472v38.622h7.469L156.515,120.298z M156.915,165.141h-42.592l-3.755-49.349h49.351
			L156.915,165.141z M124.443,120.298h-9.721l2.253,38.622h7.468V120.298z M141.981,120.405h-12.725v38.62h12.725V120.405z"/>
	</g>
	<g>
		<rect x="108.153" y="106.35" fill="#020304" width="56.322" height="10.513"/>
		<rect x="125.515" y="99.741" fill="#020304" width="21.6" height="7.744"/>
		<path fill="#020304" d="M157.586,121.367h-10.472v38.62h7.468L157.586,121.367z M157.985,166.212h-42.591l-3.755-49.349h49.351
			L157.985,166.212z M125.515,121.367h-9.722l2.253,38.62h7.469V121.367L125.515,121.367z M143.053,121.476h-12.725v38.62h12.725
			V121.476z"/>
	</g>
	<g>
		<rect x="109.224" y="107.419" fill="#020304" width="56.322" height="10.514"/>
		<rect x="126.585" y="100.812" fill="#020304" width="21.601" height="7.745"/>
		<path fill="#020304" d="M158.656,122.439h-10.471v38.619h7.467L158.656,122.439z M159.056,167.282h-42.591l-3.755-49.35h49.35
			L159.056,167.282z M126.585,122.439h-9.721l2.253,38.619h7.468V122.439L126.585,122.439z M144.124,122.545h-12.726v38.622h12.726
			V122.545L144.124,122.545z"/>
	</g>
	<g>
		<rect x="110.295" y="108.489" fill="#020304" width="56.322" height="10.514"/>
		<rect x="127.655" y="101.882" fill="#020304" width="21.601" height="7.744"/>
		<path fill="#020304" d="M159.727,123.509h-10.472v38.621h7.468L159.727,123.509z M160.126,168.354h-42.591l-3.755-49.35h49.35
			L160.126,168.354z M127.655,123.509h-9.72l2.252,38.621h7.468V123.509L127.655,123.509z M145.193,123.616h-12.725v38.62h12.725
			V123.616z"/>
	</g>
	<g>
		<rect x="111.365" y="109.561" fill="#020304" width="56.321" height="10.514"/>
		<rect x="128.727" y="102.952" fill="#020304" width="21.6" height="7.744"/>
		<path fill="#020304" d="M160.799,124.58h-10.473v38.619h7.468L160.799,124.58z M161.196,169.425h-42.59l-3.755-49.351H164.2
			L161.196,169.425z M128.727,124.58h-9.722l2.253,38.619h7.469V124.58z M146.265,124.688h-12.726v38.62h12.726V124.688z"/>
	</g>
	<g>
		<rect x="112.436" y="110.631" fill="#020304" width="56.322" height="10.514"/>
		<rect x="129.798" y="104.023" fill="#020304" width="21.599" height="7.745"/>
		<path fill="#020304" d="M161.868,125.651h-10.472v38.62h7.469L161.868,125.651z M162.268,170.494h-42.59l-3.756-49.35h49.35
			L162.268,170.494z M129.798,125.651h-9.722l2.253,38.62h7.469V125.651z M147.334,125.757h-12.725v38.622h12.725V125.757
			L147.334,125.757z"/>
	</g>
	<g>
		<rect x="113.507" y="111.702" fill="#020304" width="56.321" height="10.514"/>
		<rect x="130.868" y="105.094" fill="#020304" width="21.599" height="7.745"/>
		<path fill="#020304" d="M162.938,126.721h-10.473v38.621h7.469L162.938,126.721z M163.338,171.563h-42.59l-3.755-49.348h49.349
			L163.338,171.563z M130.868,126.721h-9.722l2.254,38.621h7.468V126.721L130.868,126.721z M148.405,126.828h-12.725v38.62h12.725
			V126.828L148.405,126.828z"/>
	</g>
	<g>
		<rect x="114.577" y="112.772" fill="#020304" width="56.321" height="10.514"/>
		<rect x="131.938" y="106.164" fill="#020304" width="21.6" height="7.746"/>
		<path fill="#020304" d="M164.01,127.792h-10.472v38.622h7.468L164.01,127.792z M164.408,172.635h-42.59l-3.754-49.35h49.348
			L164.408,172.635z M131.938,127.792h-9.721l2.254,38.622h7.467V127.792z M149.476,127.899h-12.725v38.62h12.725V127.899z"/>
	</g>
	<g>
		<rect x="115.648" y="113.843" fill="#020304" width="56.32" height="10.515"/>
		<rect x="133.01" y="107.235" fill="#020304" width="21.599" height="7.745"/>
		<path fill="#020304" d="M165.08,128.861h-10.472v38.622h7.468L165.08,128.861z M165.479,173.706h-42.591l-3.755-49.349h49.349
			L165.479,173.706z M133.01,128.861h-9.722l2.253,38.622h7.469V128.861z M150.546,128.97h-12.725v38.619h12.725V128.97z"/>
	</g>
	<g>
		<rect x="116.718" y="114.914" fill="#020304" width="56.322" height="10.515"/>
		<rect x="134.08" y="108.305" fill="#020304" width="21.599" height="7.746"/>
		<path fill="#020304" d="M166.151,129.933h-10.473v38.622h7.469L166.151,129.933z M166.55,174.775h-42.59l-3.755-49.347h49.349
			L166.55,174.775z M134.08,129.933h-9.721l2.252,38.622h7.468L134.08,129.933L134.08,129.933z M151.617,130.041h-12.725v38.619
			h12.725V130.041z"/>
	</g>
	<g>
		<rect x="117.789" y="115.984" fill="#020304" width="56.322" height="10.514"/>
		<rect x="135.15" y="109.376" fill="#020304" width="21.599" height="7.745"/>
		<path fill="#020304" d="M167.222,131.004h-10.473v38.62h7.469L167.222,131.004z M167.621,175.847H125.03l-3.755-49.349h49.35
			L167.621,175.847z M135.15,131.004h-9.721l2.253,38.62h7.469L135.15,131.004L135.15,131.004z M152.688,131.11h-12.725v38.621
			h12.725V131.11L152.688,131.11z"/>
	</g>
	<g>
		<rect x="118.859" y="117.056" fill="#020304" width="56.322" height="10.514"/>
		<rect x="136.221" y="110.447" fill="#020304" width="21.6" height="7.744"/>
		<path fill="#020304" d="M168.292,132.074H157.82v38.621h7.468L168.292,132.074z M168.691,176.918h-42.591l-3.755-49.349h49.35
			L168.691,176.918z M136.221,132.074H126.5l2.252,38.621h7.469V132.074L136.221,132.074z M153.76,132.182h-12.727v38.621h12.727
			V132.182L153.76,132.182z"/>
	</g>
	<g>
		<rect x="119.931" y="118.126" fill="#020304" width="56.322" height="10.513"/>
		<rect x="137.291" y="111.518" fill="#020304" width="21.6" height="7.745"/>
		<path fill="#020304" d="M169.362,133.146h-10.471v38.621h7.467L169.362,133.146z M169.762,177.988h-42.591l-3.755-49.35h49.35
			L169.762,177.988z M137.291,133.146h-9.72l2.252,38.621h7.468V133.146z M154.829,133.253h-12.725v38.62h12.725V133.253z"/>
	</g>
	<g>
		<rect x="121" y="119.197" fill="#020304" width="56.323" height="10.513"/>
		<rect x="138.363" y="112.589" fill="#020304" width="21.599" height="7.744"/>
		<path fill="#020304" d="M170.434,134.217h-10.472v38.619h7.468L170.434,134.217z M170.832,179.06h-42.591l-3.754-49.35h49.349
			L170.832,179.06z M138.363,134.217h-9.722l2.253,38.619h7.469V134.217z M155.9,134.322h-12.726v38.622H155.9V134.322z"/>
	</g>
	<g>
		<rect x="122.071" y="120.268" fill="#020304" width="56.322" height="10.514"/>
		<rect x="139.433" y="113.66" fill="#020304" width="21.599" height="7.743"/>
		<path fill="#020304" d="M171.504,135.288h-10.473v38.619h7.469L171.504,135.288z M171.903,180.129h-42.591l-3.755-49.348h49.35
			L171.903,180.129z M139.433,135.288h-9.721l2.252,38.619h7.469V135.288L139.433,135.288z M156.971,135.394h-12.725v38.62h12.725
			V135.394L156.971,135.394z"/>
	</g>
	<g>
		<rect x="123.142" y="121.338" fill="#020304" width="56.322" height="10.513"/>
		<rect x="140.504" y="114.73" fill="#020304" width="21.599" height="7.743"/>
		<path fill="#020304" d="M172.574,136.357h-10.472v38.621h7.468L172.574,136.357z M172.974,181.2h-42.59l-3.756-49.35h49.35
			L172.974,181.2z M140.504,136.357h-9.722l2.253,38.621h7.469V136.357L140.504,136.357z M158.041,136.463h-12.725v38.622h12.725
			V136.463L158.041,136.463z"/>
	</g>
	<g>
		<rect x="124.213" y="122.408" fill="#020304" width="56.321" height="10.514"/>
		<rect x="141.574" y="115.801" fill="#020304" width="21.6" height="7.744"/>
		<path fill="#020304" d="M173.646,137.429h-10.472v38.62h7.468L173.646,137.429z M174.045,182.271h-42.591l-3.755-49.35h49.349
			L174.045,182.271z M141.574,137.429h-9.722l2.254,38.62h7.468V137.429z M159.112,137.534h-12.726v38.62h12.726V137.534z"/>
	</g>
	<g>
		<rect x="125.284" y="123.478" fill="#020304" width="56.321" height="10.514"/>
		<rect x="142.645" y="116.871" fill="#020304" width="21.6" height="7.745"/>
		<path fill="#020304" d="M174.716,138.498h-10.472v38.622h7.468L174.716,138.498z M175.115,183.343h-42.59l-3.755-49.35h49.348
			L175.115,183.343z M142.645,138.498h-9.722l2.254,38.622h7.468V138.498z M160.182,138.604h-12.725v38.621h12.725V138.604z"/>
	</g>
	<g>
		<rect x="126.354" y="124.549" fill="#020304" width="56.322" height="10.515"/>
		<rect x="143.716" y="117.941" fill="#020304" width="21.598" height="7.746"/>
		<path fill="#020304" d="M175.787,139.569h-10.473v38.62h7.469L175.787,139.569z M176.186,184.412h-42.59l-3.755-49.349h49.349
			L176.186,184.412z M143.716,139.569h-9.722l2.253,38.62h7.469V139.569L143.716,139.569z M161.253,139.676h-12.726v38.621h12.726
			V139.676L161.253,139.676z"/>
	</g>
	<g>
		<rect x="127.425" y="125.621" fill="#020304" width="56.322" height="10.514"/>
		<rect x="144.786" y="119.013" fill="#020304" width="21.599" height="7.744"/>
		<path fill="#020304" d="M176.857,140.639h-10.472v38.62h7.468L176.857,140.639z M177.257,185.483h-42.592l-3.754-49.349h49.349
			L177.257,185.483z M144.786,140.639h-9.721l2.253,38.62h7.468V140.639z M162.323,140.747h-12.725v38.621h12.725V140.747
			L162.323,140.747z"/>
	</g>
	<g>
		<rect x="128.495" y="126.69" fill="#020304" width="56.321" height="10.514"/>
		<rect x="145.856" y="120.082" fill="#020304" width="21.599" height="7.746"/>
		<path fill="#020304" d="M177.928,141.71h-10.473v38.62h7.469L177.928,141.71z M178.327,186.553h-42.591l-3.755-49.347h49.35
			L178.327,186.553z M145.856,141.71h-9.721l2.252,38.62h7.469V141.71z M163.395,141.816h-12.726v38.621h12.726V141.816z"/>
	</g>
	<g>
		<rect x="129.565" y="127.762" fill="#020304" width="56.322" height="10.514"/>
		<rect x="146.927" y="121.153" fill="#020304" width="21.6" height="7.746"/>
		<path fill="#020304" d="M178.998,142.779h-10.472v38.622h7.468L178.998,142.779z M179.397,187.623h-42.591l-3.755-49.35h49.35
			L179.397,187.623z M146.927,142.779h-9.72l2.252,38.622h7.468V142.779z M164.465,142.888H151.74v38.621h12.725V142.888z"/>
	</g>
	<g>
		<rect x="130.637" y="128.833" fill="#020304" width="56.322" height="10.512"/>
		<rect x="147.999" y="122.224" fill="#020304" width="21.599" height="7.745"/>
		<path fill="#020304" d="M180.069,143.852h-10.472v38.621h7.468L180.069,143.852z M180.469,188.695h-42.592l-3.754-49.349h49.349
			L180.469,188.695z M147.999,143.852h-9.722l2.253,38.621h7.469V143.852z M165.536,143.959h-12.725v38.62h12.725V143.959z"/>
	</g>
	<g>
		<rect x="131.707" y="129.902" fill="#020304" width="56.321" height="10.514"/>
		<rect x="149.068" y="123.295" fill="#020304" width="21.6" height="7.745"/>
		<path fill="#020304" d="M181.14,144.923h-10.471v38.619h7.468L181.14,144.923z M181.538,189.766h-42.591l-3.755-49.348h49.349
			L181.538,189.766z M149.068,144.923h-9.721l2.252,38.619h7.469V144.923L149.068,144.923z M166.606,145.028h-12.725v38.622h12.725
			V145.028L166.606,145.028z"/>
	</g>
	<g>
		<rect x="132.777" y="130.974" fill="#020304" width="56.322" height="10.514"/>
		<rect x="150.139" y="124.366" fill="#020304" width="21.6" height="7.743"/>
		<path fill="#020304" d="M182.21,145.992h-10.473v38.621h7.469L182.21,145.992z M182.609,190.835h-42.591l-3.755-49.348h49.35
			L182.609,190.835z M150.139,145.992h-9.721l2.253,38.621h7.468V145.992L150.139,145.992z M167.677,146.1h-12.725v38.62h12.725
			V146.1z"/>
	</g>
	<g>
		<rect x="133.848" y="132.045" fill="#020304" width="56.322" height="10.512"/>
		<rect x="151.21" y="125.436" fill="#020304" width="21.6" height="7.745"/>
		<path fill="#020304" d="M183.281,147.063h-10.473v38.619h7.469L183.281,147.063z M183.68,191.906h-42.59l-3.755-49.35h49.349
			L183.68,191.906z M151.21,147.063h-9.721l2.253,38.619h7.468V147.063z M168.748,147.171h-12.726v38.62h12.726V147.171z"/>
	</g>
</g>
<g>
	<rect x="24.949" y="23.899" fill="#FFFFFF" width="56.322" height="10.513"/>
	<rect x="42.31" y="17.292" fill="#FFFFFF" width="21.599" height="7.744"/>
	<path fill="#FFFFFF" d="M74.78,83.762H32.189l-3.754-49.348h49.351L74.78,83.762z M42.31,38.918h-9.721l2.253,38.621h7.468V38.918z
		 M59.848,39.025H47.123v38.621h12.725V39.025L59.848,39.025z M74.381,38.918H63.909v38.621h7.469L74.381,38.918z"/>
</g>
</svg>
