<?xml version="1.0" encoding="utf-8"?>
<!-- Generator: Adobe Illustrator 16.0.0, SVG Export Plug-In . SVG Version: 6.00 Build 0)  -->
<!DOCTYPE svg PUBLIC "-//W3C//DTD SVG 1.1//EN" "http://www.w3.org/Graphics/SVG/1.1/DTD/svg11.dtd">
<svg version="1.1" id="Calque_1" xmlns="http://www.w3.org/2000/svg" xmlns:xlink="http://www.w3.org/1999/xlink" x="0px" y="0px"
	 width="112.143px" height="103.571px" viewBox="0 0 112.143 103.571" enable-background="new 0 0 112.143 103.571"
	 xml:space="preserve">
<rect x="-0.165" y="0.549" fill="#FFEC3D" width="112.143" height="103.571"/>
<g>
	
		<rect x="41.419" y="27.97" transform="matrix(0.7071 0.7071 -0.7071 0.7071 54.3693 -21.3188)" fill="#FFFFFF" width="23" height="54"/>
	<polyline fill="#FFFFFF" points="20.193,88.403 25.54,66.085 41.804,82.349 	"/>
	
		<rect x="67.758" y="22.646" transform="matrix(0.7071 0.7071 -0.7071 0.7071 43.4589 -47.6583)" fill="#FFFFFF" width="23" height="11.969"/>
</g>
<g opacity="0.25">
	<g>
		<path fill="#010202" d="M124.811,165.355l-23.965-23.965l-0.426-0.425l-1.286-1.286L45.222,85.767L30.674,71.219l-5.134-5.134
			l-5.347,22.318l1.137-0.319l-0.281,1.175l1.137-0.318l-0.281,1.174l1.137-0.318L22.76,90.97l1.137-0.318l-0.281,1.174l1.137-0.318
			l-0.281,1.174l1.138-0.319l-0.282,1.175l1.137-0.318l-0.281,1.174l1.137-0.319l-0.281,1.175l1.137-0.318l-0.281,1.174l1.137-0.318
			L28.75,96.96l1.137-0.318l-0.281,1.174l1.137-0.319l-0.281,1.175l1.137-0.318l-0.281,1.174l1.137-0.319l-0.281,1.174l1.137-0.319
			l-0.281,1.175l1.137-0.318l-0.281,1.174l1.137-0.318l-0.281,1.174l1.137-0.318l-0.281,1.174l1.137-0.318l-0.281,1.174l1.137-0.318
			l-0.281,1.174l1.137-0.318l-0.281,1.174l1.138-0.319l-0.281,1.175l1.137-0.318l-0.281,1.174l1.137-0.318l-0.281,1.174l1.137-0.318
			l-0.281,1.174l1.137-0.319l-0.281,1.175l1.137-0.318l-0.281,1.174l1.137-0.318l-0.281,1.174l1.138-0.319l-0.281,1.174l1.137-0.318
			l-0.281,1.174l1.137-0.318l-0.281,1.174l1.137-0.318l-0.282,1.175l1.137-0.318l-0.281,1.174l1.137-0.318l-0.281,1.174l1.137-0.318
			l-0.281,1.174l1.138-0.319L51,119.209l1.137-0.318l-0.281,1.174l1.137-0.318l-0.281,1.174l1.137-0.318l-0.282,1.175l1.137-0.318
			l-0.281,1.174l1.137-0.318l-0.281,1.174l1.137-0.318l-0.281,1.174l1.138-0.319L56.99,125.2l1.137-0.318l-0.281,1.174l1.137-0.318
			l-0.281,1.174l1.138-0.319l-0.282,1.175l1.137-0.318l-0.281,1.174l1.137-0.318l-0.281,1.174l1.137-0.318l-0.281,1.174l1.138-0.319
			l-0.282,1.175l1.137-0.318l-0.281,1.174l1.137-0.318l-0.281,1.174l1.137-0.318l-0.281,1.174l1.137-0.318l-0.281,1.174l1.137-0.318
			l-0.281,1.174l1.137-0.318l-0.281,1.174l1.137-0.319l-0.281,1.175l1.137-0.318l-0.281,1.174l1.137-0.318l-0.281,1.174l1.137-0.318
			l-0.281,1.174l1.137-0.318l-0.281,1.174l1.137-0.318l-0.281,1.174l1.137-0.318l-0.281,1.174l1.137-0.319l-0.281,1.175l1.137-0.318
			l-0.281,1.174l1.137-0.318l-0.281,1.174l1.137-0.318l-0.281,1.174l1.137-0.318l-0.281,1.174l1.137-0.318l-0.281,1.174l1.137-0.318
			l-0.281,1.174l1.137-0.319l-0.281,1.175l1.137-0.318l-0.281,1.174l1.137-0.318l-0.281,1.174l1.137-0.318l-0.281,1.174l1.138-0.319
			l-0.281,1.175l1.137-0.318l-0.281,1.174l1.137-0.318l-0.281,1.174l1.137-0.319l-0.281,1.174l1.137-0.319l-0.281,1.175l1.137-0.318
			l-0.281,1.174l1.137-0.318l-0.281,1.174l1.138-0.319l-0.281,1.175l1.137-0.318l-0.281,1.174l1.137-0.318l-0.282,1.175l1.137-0.319
			l-0.281,1.174l1.137-0.319l-0.281,1.175l1.137-0.318l-0.281,1.174l1.137-0.318l-0.281,1.174l1.137-0.318l-0.281,1.174l1.137-0.319
			l-0.281,1.174l1.138-0.319l-0.282,1.175l1.137-0.318l-0.281,1.174l1.137-0.319l-0.281,1.175l1.137-0.318l-0.281,1.174l1.137-0.318
			l-0.281,1.174l1.137-0.318l-0.281,1.174l1.137-0.318l-0.281,1.174l1.138-0.319l-0.282,1.175l1.137-0.318l-0.281,1.174l1.137-0.319
			l-0.281,1.175l1.137-0.318l-0.281,1.174l21.611-6.054L124.811,165.355L124.811,165.355z M161.438,125.306L161.438,125.306
			l-9.413-9.414l-6.42-6.42l-1.281-1.282L66.446,30.313l-0.856-0.855l-1.711-1.711L25.695,65.93l0.855,0.855l10.269,10.27
			l35.946,35.946l0.425,0.426l1.281,1.281l6.635,6.634l3.639,3.64l29.951,29.951l0.854,0.854l4.281,4.281l3.423,3.423l4.279,4.279
			l0.855,0.855l38.184-38.184l-4.279-4.279L161.438,125.306z M174.629,115.538l-3.423-3.423l-12.841-12.841l-0.426-0.425
			l-1.286-1.286l-1.709-1.709l-4.281-4.281l-23.957-23.957l-2.569-2.569l-4.281-4.281L82.204,23.113v0l-6.846-6.846l-8.463,8.463
			l1.711,1.711l0.855,0.856l97.559,97.559l0,0l2.567,2.567l8.463-8.463L174.629,115.538z"/>
	</g>
</g>
<g>
	
		<rect x="41.419" y="27.97" transform="matrix(0.7071 0.7071 -0.7071 0.7071 54.3693 -21.3188)" fill="#FFFFFF" width="23" height="54"/>
	<polyline fill="#FFFFFF" points="20.193,88.403 25.54,66.085 41.804,82.349 	"/>
	
		<rect x="67.758" y="22.646" transform="matrix(0.7071 0.7071 -0.7071 0.7071 43.4589 -47.6583)" fill="#FFFFFF" width="23" height="11.969"/>
</g>
</svg>
