<?xml version="1.0" encoding="utf-8"?>
<!-- Generator: Adobe Illustrator 16.0.0, SVG Export Plug-In . SVG Version: 6.00 Build 0)  -->
<!DOCTYPE svg PUBLIC "-//W3C//DTD SVG 1.1//EN" "http://www.w3.org/Graphics/SVG/1.1/DTD/svg11.dtd">
<svg version="1.1" id="Calque_1" xmlns="http://www.w3.org/2000/svg" xmlns:xlink="http://www.w3.org/1999/xlink" x="0px" y="0px"
	 width="112.143px" height="103.57px" viewBox="0 0 112.143 103.57" enable-background="new 0 0 112.143 103.57"
	 xml:space="preserve">
<rect x="0" y="0" fill="#757575" width="112.145" height="103.572"/>
<g>
	<rect x="43.655" y="22.785" fill="#757575" width="24.891" height="6.008"/>
	<path fill="#757575" d="M86.572,74.285H24.688V28.793h61.884V74.285z M56.101,34.802c-9.718,0-17.596,7.878-17.596,17.596
		c0,9.718,7.877,17.596,17.596,17.596c9.718,0,17.596-7.878,17.596-17.596C73.697,42.68,65.819,34.802,56.101,34.802z"/>
</g>
<g opacity="0.3">
	<g>
		<rect x="42.188" y="19.785" width="28.215" height="6.811"/>
		<path d="M56.295,33.406c-11.016,0-19.945,8.931-19.945,19.945c0,11.016,8.929,19.945,19.945,19.945s19.946-8.93,19.946-19.945
			C76.241,42.337,67.311,33.406,56.295,33.406z M90.835,78.162H20.688V26.595h70.147V78.162z"/>
	</g>
	<g>
		<rect x="43.268" y="20.865" width="28.214" height="6.811"/>
		<path d="M57.375,34.486c-11.015,0-19.945,8.931-19.945,19.945c0,11.016,8.93,19.945,19.945,19.945
			c11.016,0,19.946-8.93,19.946-19.945C77.322,43.417,68.391,34.486,57.375,34.486z M91.915,79.242H21.768V27.676h70.147V79.242z"/>
	</g>
	<g>
		<rect x="44.348" y="21.946" width="28.215" height="6.811"/>
		<path d="M58.456,35.567c-11.016,0-19.945,8.931-19.945,19.946c0,11.015,8.929,19.944,19.945,19.944
			c11.015,0,19.946-8.93,19.946-19.944C78.403,44.497,69.471,35.567,58.456,35.567z M92.995,80.323H22.848V28.756h70.147V80.323z"/>
	</g>
	<g>
		<rect x="45.429" y="23.026" width="28.215" height="6.811"/>
		<path d="M59.536,36.647c-11.016,0-19.945,8.931-19.945,19.945c0,11.016,8.929,19.945,19.945,19.945s19.946-8.93,19.946-19.945
			C79.483,45.578,70.552,36.647,59.536,36.647z M94.076,81.403H23.929V29.837h70.147V81.403z"/>
	</g>
	<g>
		<rect x="46.51" y="24.107" width="28.214" height="6.81"/>
		<path d="M60.616,37.728c-11.016,0-19.944,8.931-19.944,19.945c0,11.017,8.929,19.945,19.944,19.945
			c11.017,0,19.946-8.929,19.946-19.945C80.563,46.658,71.633,37.728,60.616,37.728z M95.156,82.483H25.01V30.917h70.147V82.483z"/>
	</g>
	<g>
		<rect x="47.59" y="25.187" width="28.215" height="6.81"/>
		<path d="M61.697,38.808c-11.015,0-19.944,8.93-19.944,19.945c0,11.016,8.929,19.945,19.944,19.945
			c11.017,0,19.947-8.93,19.947-19.945C81.644,47.739,72.713,38.808,61.697,38.808z M96.238,83.564H26.09V31.997h70.147V83.564z"/>
	</g>
	<g>
		<rect x="48.67" y="26.267" width="28.215" height="6.811"/>
		<path d="M62.778,39.888c-11.016,0-19.944,8.931-19.944,19.945c0,11.016,8.929,19.945,19.944,19.945s19.946-8.93,19.946-19.945
			C82.724,48.819,73.793,39.888,62.778,39.888z M97.318,84.644H27.17V33.078h70.147V84.644z"/>
	</g>
	<g>
		<rect x="49.751" y="27.348" width="28.215" height="6.811"/>
		<path d="M63.858,40.969c-11.016,0-19.944,8.93-19.944,19.946c0,11.015,8.929,19.945,19.944,19.945
			c11.017,0,19.946-8.931,19.946-19.945C83.804,49.899,74.874,40.969,63.858,40.969z M98.399,85.724H28.251V34.158h70.148V85.724z"
			/>
	</g>
	<g>
		<rect x="50.831" y="28.428" width="28.215" height="6.811"/>
		<path d="M64.939,42.05c-11.016,0-19.945,8.931-19.945,19.945c0,11.016,8.93,19.945,19.945,19.945s19.946-8.93,19.946-19.945
			C84.885,50.98,75.954,42.05,64.939,42.05z M99.479,86.805H29.331V35.239h70.147V86.805z"/>
	</g>
	<g>
		<rect x="51.912" y="29.509" width="28.214" height="6.811"/>
		<path d="M66.019,43.13c-11.016,0-19.945,8.93-19.945,19.945c0,11.016,8.929,19.945,19.945,19.945s19.946-8.93,19.946-19.945
			C85.965,52.06,77.034,43.13,66.019,43.13z M100.559,87.885H30.412V36.32h70.147V87.885z"/>
	</g>
	<g>
		<rect x="52.992" y="30.589" width="28.214" height="6.811"/>
		<path d="M67.1,44.21c-11.016,0-19.945,8.931-19.945,19.945c0,11.017,8.93,19.946,19.945,19.946
			c11.015,0,19.945-8.93,19.945-19.946C87.045,53.141,78.115,44.21,67.1,44.21z M101.64,88.967H31.492V37.4h70.148V88.967z"/>
	</g>
	<g>
		<rect x="54.073" y="31.67" width="28.215" height="6.811"/>
		<path d="M68.18,45.291c-11.016,0-19.945,8.931-19.945,19.945c0,11.016,8.929,19.945,19.945,19.945s19.946-8.93,19.946-19.945
			C88.126,54.221,79.196,45.291,68.18,45.291z M102.72,90.047H32.573V38.48h70.147V90.047z"/>
	</g>
	<g>
		<rect x="55.154" y="32.75" width="28.214" height="6.811"/>
		<path d="M69.26,46.371c-11.016,0-19.945,8.93-19.945,19.946c0,11.015,8.929,19.944,19.945,19.944
			c11.017,0,19.946-8.93,19.946-19.944C89.206,55.302,80.277,46.371,69.26,46.371z M103.8,91.127H33.653V39.56H103.8V91.127z"/>
	</g>
	<g>
		<rect x="56.234" y="33.83" width="28.215" height="6.811"/>
		<path d="M70.341,47.452c-11.017,0-19.945,8.931-19.945,19.945s8.929,19.944,19.945,19.944c11.016,0,19.946-8.93,19.946-19.944
			S81.357,47.452,70.341,47.452z M104.881,92.208H34.734V40.641h70.147V92.208z"/>
	</g>
	<g>
		<rect x="57.314" y="34.911" width="28.215" height="6.811"/>
		<path d="M71.421,48.532c-11.016,0-19.945,8.931-19.945,19.945c0,11.016,8.929,19.945,19.945,19.945s19.946-8.93,19.946-19.945
			C91.367,57.463,82.437,48.532,71.421,48.532z M105.961,93.288H35.814V41.721h70.147V93.288z"/>
	</g>
	<g>
		<rect x="58.394" y="35.991" width="28.216" height="6.81"/>
		<path d="M72.501,49.613c-11.016,0-19.944,8.93-19.944,19.944c0,11.017,8.929,19.946,19.944,19.946s19.946-8.93,19.946-19.946
			C92.448,58.543,83.517,49.613,72.501,49.613z M107.042,94.369H36.894V42.802h70.148V94.369z"/>
	</g>
	<g>
		<rect x="59.475" y="37.072" width="28.215" height="6.81"/>
		<path d="M73.582,50.693c-11.016,0-19.945,8.93-19.945,19.945s8.93,19.945,19.945,19.945s19.946-8.93,19.946-19.945
			S84.598,50.693,73.582,50.693z M108.122,95.449H37.974V43.882h70.148V95.449z"/>
	</g>
	<g>
		<rect x="60.555" y="38.152" width="28.215" height="6.811"/>
		<path d="M74.662,51.773c-11.016,0-19.944,8.931-19.944,19.945c0,11.016,8.929,19.945,19.944,19.945s19.946-8.93,19.946-19.945
			C94.609,60.704,85.678,51.773,74.662,51.773z M109.202,96.529H39.055V44.963h70.147V96.529z"/>
	</g>
	<g>
		<rect x="61.636" y="39.233" width="28.215" height="6.81"/>
		<path d="M75.743,52.854c-11.016,0-19.945,8.93-19.945,19.944c0,11.016,8.93,19.945,19.945,19.945
			c11.015,0,19.945-8.93,19.945-19.945C95.689,61.784,86.758,52.854,75.743,52.854z M110.282,97.609H40.135V46.043h70.147V97.609z"
			/>
	</g>
	<g>
		<rect x="62.716" y="40.313" width="28.215" height="6.811"/>
		<path d="M76.823,53.934c-11.017,0-19.945,8.931-19.945,19.945c0,11.016,8.929,19.945,19.945,19.945
			c11.016,0,19.946-8.93,19.946-19.945C96.77,62.865,87.839,53.934,76.823,53.934z M111.364,98.69H41.216V47.124h70.147V98.69z"/>
	</g>
	<g>
		<rect x="63.796" y="41.394" width="28.215" height="6.81"/>
		<path d="M77.904,55.014c-11.016,0-19.945,8.931-19.945,19.945c0,11.016,8.93,19.945,19.945,19.945S97.85,85.975,97.85,74.96
			C97.85,63.945,88.919,55.014,77.904,55.014z M112.444,99.77H42.296V48.204h70.147V99.77z"/>
	</g>
	<g>
		<rect x="64.877" y="42.474" width="28.214" height="6.811"/>
		<path d="M78.984,56.095c-11.016,0-19.944,8.93-19.944,19.944c0,11.017,8.929,19.945,19.944,19.945
			C90,95.985,98.93,87.056,98.93,76.04C98.93,65.025,90,56.095,78.984,56.095z M113.524,100.851H43.377V49.284h70.147V100.851z"/>
	</g>
	<g>
		<rect x="65.957" y="43.554" width="28.215" height="6.811"/>
		<path d="M80.065,57.176c-11.016,0-19.945,8.931-19.945,19.945c0,11.016,8.93,19.945,19.945,19.945s19.946-8.93,19.946-19.945
			C100.011,66.106,91.08,57.176,80.065,57.176z M114.605,101.931H44.457V50.365h70.147V101.931z"/>
	</g>
	<g>
		<rect x="67.038" y="44.635" width="28.214" height="6.811"/>
		<path d="M81.145,58.256c-11.016,0-19.944,8.931-19.944,19.945c0,11.016,8.929,19.945,19.944,19.945s19.946-8.93,19.946-19.945
			C101.091,67.186,92.16,58.256,81.145,58.256z M115.685,103.011H45.537V51.445h70.147V103.011z"/>
	</g>
	<g>
		<rect x="68.118" y="45.715" width="28.214" height="6.81"/>
		<path d="M82.226,59.337c-11.016,0-19.945,8.93-19.945,19.944c0,11.016,8.93,19.946,19.945,19.946s19.945-8.931,19.945-19.946
			C102.171,68.266,93.241,59.337,82.226,59.337z M116.766,104.093H46.618V52.525h70.148V104.093z"/>
	</g>
	<g>
		<rect x="69.198" y="46.796" width="28.215" height="6.811"/>
		<path d="M83.306,60.417c-11.016,0-19.945,8.931-19.945,19.945c0,11.016,8.93,19.945,19.945,19.945s19.946-8.93,19.946-19.945
			C103.252,69.347,94.322,60.417,83.306,60.417z M117.846,105.173H47.698V53.606h70.147V105.173z"/>
	</g>
	<g>
		<rect x="70.279" y="47.876" width="28.215" height="6.81"/>
		<path d="M84.386,61.497c-11.016,0-19.944,8.931-19.944,19.945c0,11.017,8.929,19.946,19.944,19.946s19.946-8.93,19.946-19.946
			C104.332,70.427,95.402,61.497,84.386,61.497z M118.926,106.254H48.779V54.686h70.147V106.254z"/>
	</g>
	<g>
		<rect x="71.36" y="48.957" width="28.215" height="6.81"/>
		<path d="M85.466,62.578c-11.016,0-19.944,8.93-19.944,19.945s8.929,19.945,19.944,19.945s19.946-8.93,19.946-19.945
			S96.482,62.578,85.466,62.578z M120.007,107.334H49.86V55.766h70.147V107.334z"/>
	</g>
	<g>
		<rect x="72.441" y="50.037" width="28.214" height="6.811"/>
		<path d="M86.547,63.658c-11.016,0-19.944,8.931-19.944,19.945c0,11.016,8.929,19.945,19.944,19.945s19.946-8.93,19.946-19.945
			C106.493,72.589,97.563,63.658,86.547,63.658z M121.087,108.414H50.94V56.847h70.147V108.414z"/>
	</g>
	<g>
		<rect x="73.521" y="51.117" width="28.215" height="6.811"/>
		<path d="M87.627,64.738c-11.016,0-19.944,8.931-19.944,19.945c0,11.016,8.929,19.945,19.944,19.945
			c11.017,0,19.946-8.93,19.946-19.945C107.573,73.669,98.644,64.738,87.627,64.738z M122.167,109.494H52.02V57.927h70.147V109.494z
			"/>
	</g>
	<g>
		<rect x="74.601" y="52.197" width="28.215" height="6.811"/>
		<path d="M88.708,65.818c-11.016,0-19.945,8.932-19.945,19.945c0,11.016,8.93,19.945,19.945,19.945s19.945-8.93,19.945-19.945
			C108.654,74.75,99.724,65.818,88.708,65.818z M123.248,110.575H53.101V59.008h70.147V110.575z"/>
	</g>
	<g>
		<rect x="75.681" y="53.278" width="28.215" height="6.81"/>
		<path d="M89.788,66.899c-11.016,0-19.944,8.931-19.944,19.945c0,11.016,8.929,19.945,19.944,19.945s19.946-8.93,19.946-19.945
			C109.735,75.83,100.804,66.899,89.788,66.899z M124.328,111.655H54.181V60.088h70.147V111.655z"/>
	</g>
	<g>
		<rect x="76.762" y="54.359" width="28.214" height="6.81"/>
		<path d="M90.868,67.979c-11.016,0-19.945,8.931-19.945,19.945c0,11.017,8.93,19.945,19.945,19.945s19.946-8.929,19.946-19.945
			C110.815,76.91,101.884,67.979,90.868,67.979z M125.409,112.736H55.261V61.169h70.148V112.736z"/>
	</g>
	<g>
		<rect x="77.842" y="55.439" width="28.214" height="6.811"/>
		<path d="M91.948,69.06c-11.016,0-19.944,8.93-19.944,19.945s8.929,19.945,19.944,19.945c11.017,0,19.946-8.93,19.946-19.945
			S102.965,69.06,91.948,69.06z M126.49,113.816H56.342V62.25h70.147V113.816z"/>
	</g>
	<g>
		<rect x="78.923" y="56.519" width="28.214" height="6.811"/>
		<path d="M93.03,70.14c-11.016,0-19.945,8.931-19.945,19.945c0,11.016,8.93,19.945,19.945,19.945s19.946-8.93,19.946-19.945
			C112.976,79.071,104.045,70.14,93.03,70.14z M127.57,114.896H57.423V63.33h70.146V114.896z"/>
	</g>
	<g>
		<rect x="80.003" y="57.599" width="28.215" height="6.811"/>
		<path d="M94.11,71.22c-11.016,0-19.944,8.931-19.944,19.945c0,11.016,8.929,19.945,19.944,19.945s19.946-8.93,19.946-19.945
			C114.056,80.151,105.125,71.22,94.11,71.22z M128.65,115.976H58.503V64.41h70.146V115.976z"/>
	</g>
	<g>
		<rect x="81.083" y="58.68" width="28.215" height="6.81"/>
		<path d="M95.191,72.302c-11.016,0-19.945,8.931-19.945,19.945c0,11.016,8.93,19.945,19.945,19.945s19.945-8.93,19.945-19.945
			C115.136,81.232,106.206,72.302,95.191,72.302z M129.731,117.057H59.583V65.49h70.147V117.057z"/>
	</g>
	<g>
		<rect x="82.164" y="59.761" width="28.214" height="6.81"/>
		<path d="M96.271,73.382c-11.016,0-19.945,8.931-19.945,19.945c0,11.017,8.93,19.945,19.945,19.945s19.945-8.929,19.945-19.945
			C116.216,82.312,107.286,73.382,96.271,73.382z M130.811,118.137H60.663V66.571h70.147V118.137z"/>
	</g>
	<g>
		<rect x="83.244" y="60.842" width="28.215" height="6.81"/>
		<path d="M97.352,74.463c-11.017,0-19.945,8.93-19.945,19.945s8.929,19.945,19.945,19.945c11.015,0,19.945-8.93,19.945-19.945
			S108.366,74.463,97.352,74.463z M131.892,119.219H61.744V67.651h70.147V119.219z"/>
	</g>
	<g>
		<rect x="84.325" y="61.922" width="28.214" height="6.811"/>
		<path d="M98.432,75.543c-11.016,0-19.945,8.931-19.945,19.945c0,11.016,8.93,19.945,19.945,19.945s19.946-8.93,19.946-19.945
			C118.378,84.473,109.448,75.543,98.432,75.543z M132.972,120.299H62.824V68.732h70.147V120.299z"/>
	</g>
	<g>
		<rect x="85.406" y="63.002" width="28.214" height="6.811"/>
		<path d="M99.513,76.623c-11.017,0-19.945,8.931-19.945,19.945c0,11.016,8.929,19.945,19.945,19.945
			c11.015,0,19.945-8.93,19.945-19.945C119.458,85.553,110.528,76.623,99.513,76.623z M134.052,121.379H63.906V69.812h70.146
			V121.379z"/>
	</g>
	<g>
		<rect x="86.486" y="64.082" width="28.215" height="6.811"/>
		<path d="M100.593,77.703c-11.017,0-19.945,8.932-19.945,19.945c0,11.016,8.929,19.945,19.945,19.945
			c11.016,0,19.945-8.93,19.945-19.945C120.538,86.635,111.609,77.703,100.593,77.703z M135.133,122.46H64.986V70.892h70.147V122.46
			z"/>
	</g>
	<g>
		<rect x="87.566" y="65.163" width="28.215" height="6.81"/>
		<path d="M101.673,78.784c-11.016,0-19.945,8.93-19.945,19.945s8.93,19.945,19.945,19.945s19.946-8.93,19.946-19.945
			S112.689,78.784,101.673,78.784z M136.213,123.54H66.066V71.972h70.147V123.54z"/>
	</g>
	<g>
		<rect x="88.647" y="66.244" width="28.214" height="6.81"/>
		<path d="M102.753,79.864c-11.016,0-19.944,8.931-19.944,19.945c0,11.017,8.929,19.946,19.944,19.946s19.946-8.93,19.946-19.946
			C122.699,88.795,113.769,79.864,102.753,79.864z M137.293,124.621H67.146V73.053h70.147V124.621z"/>
	</g>
	<g>
		<rect x="89.727" y="67.324" width="28.214" height="6.81"/>
		<path d="M103.834,80.945c-11.017,0-19.945,8.93-19.945,19.945s8.929,19.945,19.945,19.945c11.016,0,19.946-8.93,19.946-19.945
			S114.85,80.945,103.834,80.945z M138.374,125.701H68.227V74.134h70.147V125.701z"/>
	</g>
	<g>
		<rect x="90.808" y="68.404" width="28.214" height="6.811"/>
		<path d="M104.914,82.025c-11.016,0-19.945,8.93-19.945,19.945s8.93,19.945,19.945,19.945s19.946-8.93,19.946-19.945
			S115.93,82.025,104.914,82.025z M139.454,126.781H69.307V75.215h70.147V126.781z"/>
	</g>
	<g>
		<rect x="91.888" y="69.484" width="28.215" height="6.811"/>
		<path d="M105.995,83.105c-11.017,0-19.945,8.931-19.945,19.945c0,11.016,8.929,19.945,19.945,19.945
			c11.016,0,19.945-8.93,19.945-19.945C125.941,92.036,117.011,83.105,105.995,83.105z M140.534,127.861H70.388V76.295h70.146
			V127.861z"/>
	</g>
	<g>
		<rect x="92.968" y="70.564" width="28.215" height="6.811"/>
		<path d="M107.075,84.186c-11.017,0-19.945,8.93-19.945,19.945c0,11.015,8.929,19.945,19.945,19.945
			c11.016,0,19.945-8.931,19.945-19.945C127.021,93.116,118.091,84.186,107.075,84.186z M141.615,128.941H71.468V77.375h70.147
			V128.941z"/>
	</g>
	<g>
		<rect x="94.049" y="71.645" width="28.214" height="6.811"/>
		<path d="M108.156,85.266c-11.016,0-19.945,8.931-19.945,19.945c0,11.016,8.93,19.945,19.945,19.945s19.946-8.93,19.946-19.945
			C128.102,94.197,119.171,85.266,108.156,85.266z M142.696,130.022H72.548V78.456h70.147V130.022z"/>
	</g>
	<g>
		<rect x="95.129" y="72.726" width="28.214" height="6.81"/>
		<path d="M109.236,86.347c-11.016,0-19.944,8.93-19.944,19.945s8.929,19.944,19.944,19.944s19.946-8.929,19.946-19.944
			S120.251,86.347,109.236,86.347z M143.777,131.102H73.628V79.536h70.148V131.102z"/>
	</g>
	<g>
		<rect x="96.21" y="73.806" width="28.214" height="6.811"/>
		<path d="M110.317,87.427c-11.017,0-19.945,8.93-19.945,19.945s8.929,19.945,19.945,19.945c11.015,0,19.946-8.93,19.946-19.945
			S121.331,87.427,110.317,87.427z M144.857,132.183H74.709V80.617h70.147V132.183z"/>
	</g>
	<g>
		<rect x="97.29" y="74.886" width="28.214" height="6.811"/>
		<path d="M111.397,88.508c-11.017,0-19.944,8.931-19.944,19.945c0,11.016,8.928,19.945,19.944,19.945
			c11.016,0,19.946-8.93,19.946-19.945C131.343,97.438,122.412,88.508,111.397,88.508z M145.937,133.263H75.789V81.697h70.147
			V133.263z"/>
	</g>
	<g>
		<rect x="98.37" y="75.968" width="28.214" height="6.81"/>
		<path d="M112.477,89.588c-11.016,0-19.944,8.931-19.944,19.946s8.929,19.944,19.944,19.944s19.946-8.929,19.946-19.944
			S123.492,89.588,112.477,89.588z M147.017,134.344H76.87V82.777h70.146V134.344z"/>
	</g>
	<g>
		<rect x="99.45" y="77.048" width="28.215" height="6.81"/>
		<path d="M113.558,90.669c-11.017,0-19.945,8.931-19.945,19.945c0,11.016,8.929,19.945,19.945,19.945
			c11.016,0,19.945-8.93,19.945-19.945C133.503,99.599,124.573,90.669,113.558,90.669z M148.098,135.425H77.95V83.857h70.147
			V135.425z"/>
	</g>
	<g>
		<rect x="100.531" y="78.128" width="28.214" height="6.811"/>
		<path d="M114.638,91.75c-11.016,0-19.945,8.93-19.945,19.944c0,11.016,8.93,19.946,19.945,19.946s19.945-8.931,19.945-19.946
			C134.583,100.679,125.654,91.75,114.638,91.75z M149.178,136.505H79.031V84.938h70.147V136.505z"/>
	</g>
	<g>
		<rect x="101.612" y="79.209" width="28.214" height="6.81"/>
		<path d="M115.718,92.83c-11.016,0-19.944,8.93-19.944,19.945s8.929,19.945,19.944,19.945s19.946-8.93,19.946-19.945
			S126.734,92.83,115.718,92.83z M150.259,137.586H80.112V86.018h70.147V137.586z"/>
	</g>
	<g>
		<rect x="102.693" y="80.289" width="28.214" height="6.81"/>
		<path d="M116.799,93.91c-11.017,0-19.945,8.93-19.945,19.945s8.929,19.945,19.945,19.945c11.016,0,19.946-8.93,19.946-19.945
			S127.815,93.91,116.799,93.91z M151.339,138.666H81.192V87.098h70.147V138.666z"/>
	</g>
	<g>
		<rect x="103.773" y="81.369" width="28.215" height="6.811"/>
		<path d="M117.879,94.99c-11.017,0-19.944,8.931-19.944,19.945c0,11.016,8.928,19.945,19.944,19.945
			c11.016,0,19.946-8.93,19.946-19.945C137.825,103.921,128.895,94.99,117.879,94.99z M152.419,139.746H82.272V88.179h70.147
			V139.746z"/>
	</g>
	<g>
		<rect x="104.853" y="82.45" width="28.215" height="6.81"/>
		<path d="M118.96,96.071c-11.017,0-19.945,8.93-19.945,19.945s8.929,19.945,19.945,19.945c11.016,0,19.945-8.93,19.945-19.945
			S129.976,96.071,118.96,96.071z M153.499,140.827H83.353V89.26h70.146V140.827z"/>
	</g>
	<g>
		<rect x="105.934" y="83.53" width="28.214" height="6.81"/>
		<path d="M120.04,97.151c-11.016,0-19.945,8.93-19.945,19.945s8.93,19.945,19.945,19.945s19.946-8.93,19.946-19.945
			S131.056,97.151,120.04,97.151z M154.58,141.907H84.433V90.34h70.147V141.907z"/>
	</g>
	<g>
		<rect x="107.014" y="84.61" width="28.214" height="6.811"/>
		<path d="M121.12,98.232c-11.016,0-19.944,8.93-19.944,19.944c0,11.016,8.929,19.945,19.944,19.945s19.946-8.93,19.946-19.945
			C141.067,107.162,132.136,98.232,121.12,98.232z M155.661,142.987H85.513V91.421h70.148V142.987z"/>
	</g>
	<g>
		<rect x="108.095" y="85.691" width="28.214" height="6.81"/>
		<path d="M122.2,99.312c-11.016,0-19.944,8.93-19.944,19.945s8.929,19.945,19.944,19.945c11.017,0,19.946-8.93,19.946-19.945
			S133.217,99.312,122.2,99.312z M156.741,144.068H86.594V92.501h70.147V144.068z"/>
	</g>
	<g>
		<rect x="109.175" y="86.771" width="28.214" height="6.811"/>
		<path d="M123.281,100.392c-11.016,0-19.944,8.93-19.944,19.945s8.929,19.945,19.944,19.945s19.946-8.93,19.946-19.945
			S134.297,100.392,123.281,100.392z M157.822,145.148H87.674V93.582h70.147V145.148z"/>
	</g>
	<g>
		<rect x="110.255" y="87.851" width="28.214" height="6.811"/>
		<path d="M124.363,101.472c-11.017,0-19.945,8.931-19.945,19.946c0,11.015,8.929,19.944,19.945,19.944
			c11.016,0,19.945-8.93,19.945-19.944C144.308,110.403,135.378,101.472,124.363,101.472z M158.902,146.228H88.754V94.662h70.147
			V146.228z"/>
	</g>
	<g>
		<rect x="111.335" y="88.932" width="28.215" height="6.81"/>
		<path d="M125.443,102.553c-11.017,0-19.945,8.93-19.945,19.945s8.929,19.945,19.945,19.945c11.016,0,19.945-8.93,19.945-19.945
			S136.458,102.553,125.443,102.553z M159.983,147.309H89.835V95.742h70.147V147.309z"/>
	</g>
	<g>
		<rect x="112.416" y="90.012" width="28.214" height="6.81"/>
		<path d="M126.523,103.634c-11.016,0-19.945,8.931-19.945,19.945c0,11.016,8.93,19.945,19.945,19.945s19.946-8.93,19.946-19.945
			C146.469,112.564,137.538,103.634,126.523,103.634z M161.063,148.389H90.915V96.822h70.147V148.389z"/>
	</g>
	<g>
		<rect x="113.496" y="91.094" width="28.214" height="6.81"/>
		<path d="M127.603,104.714c-11.016,0-19.944,8.931-19.944,19.946s8.929,19.945,19.944,19.945c11.017,0,19.946-8.93,19.946-19.945
			S138.619,104.714,127.603,104.714z M162.144,149.47H91.995V97.903h70.148V149.47z"/>
	</g>
	<g>
		<rect x="114.577" y="92.174" width="28.214" height="6.81"/>
		<path d="M128.684,105.795c-11.017,0-19.945,8.93-19.945,19.945s8.929,19.945,19.945,19.945c11.016,0,19.945-8.93,19.945-19.945
			S139.699,105.795,128.684,105.795z M163.224,150.551H93.076V98.983h70.147V150.551z"/>
	</g>
	<g>
		<rect x="115.657" y="93.254" width="28.214" height="6.811"/>
		<path d="M129.764,106.875c-11.016,0-19.945,8.931-19.945,19.945c0,11.016,8.93,19.945,19.945,19.945s19.945-8.93,19.945-19.945
			C149.709,115.805,140.78,106.875,129.764,106.875z M164.304,151.631H94.156v-51.566h70.147V151.631z"/>
	</g>
	<g>
		<rect x="116.738" y="94.335" width="28.215" height="6.81"/>
		<path d="M130.845,107.956c-11.017,0-19.945,8.93-19.945,19.945s8.929,19.945,19.945,19.945c11.016,0,19.945-8.93,19.945-19.945
			S141.861,107.956,130.845,107.956z M165.384,152.712H95.238v-51.567h70.146V152.712z"/>
	</g>
	<g>
		<rect x="117.818" y="95.415" width="28.215" height="6.81"/>
		<path d="M131.925,109.036c-11.017,0-19.945,8.93-19.945,19.945s8.929,19.945,19.945,19.945c11.016,0,19.945-8.93,19.945-19.945
			S142.941,109.036,131.925,109.036z M166.465,153.792H96.318v-51.567h70.147V153.792z"/>
	</g>
	<g>
		<rect x="118.899" y="96.495" width="28.214" height="6.811"/>
		<path d="M133.005,110.116c-11.016,0-19.944,8.931-19.944,19.945c0,11.016,8.929,19.945,19.944,19.945s19.945-8.93,19.945-19.945
			C152.95,119.047,144.021,110.116,133.005,110.116z M167.545,154.872H97.398v-51.566h70.147V154.872z"/>
	</g>
	<g>
		<rect x="119.98" y="97.576" width="28.214" height="6.81"/>
		<path d="M134.086,111.197c-11.017,0-19.945,8.93-19.945,19.945s8.929,19.945,19.945,19.945c11.016,0,19.945-8.93,19.945-19.945
			S145.102,111.197,134.086,111.197z M168.626,155.953H98.478v-51.567h70.148V155.953z"/>
	</g>
	<g>
		<rect x="121.06" y="98.656" width="28.214" height="6.811"/>
		<path d="M135.166,112.277c-11.017,0-19.945,8.93-19.945,19.945s8.929,19.945,19.945,19.945c11.016,0,19.946-8.93,19.946-19.945
			S146.182,112.277,135.166,112.277z M169.706,157.033H99.559v-51.566h70.147V157.033z"/>
	</g>
	<g>
		<rect x="122.14" y="99.736" width="28.215" height="6.811"/>
		<path d="M136.246,113.357c-11.016,0-19.944,8.93-19.944,19.945s8.929,19.945,19.944,19.945s19.946-8.93,19.946-19.945
			S147.262,113.357,136.246,113.357z M170.786,158.113H100.64v-51.566h70.146V158.113z"/>
	</g>
	<g>
		<rect x="123.22" y="100.817" width="28.215" height="6.81"/>
		<path d="M137.327,114.438c-11.017,0-19.945,8.93-19.945,19.945s8.929,19.944,19.945,19.944c11.016,0,19.945-8.929,19.945-19.944
			S148.343,114.438,137.327,114.438z M171.867,159.193H101.72v-51.566h70.147V159.193z"/>
	</g>
	<g>
		<rect x="124.301" y="101.897" width="28.214" height="6.81"/>
		<path d="M138.407,115.518c-11.017,0-19.945,8.93-19.945,19.945s8.929,19.945,19.945,19.945c11.016,0,19.945-8.93,19.945-19.945
			S149.423,115.518,138.407,115.518z M172.948,160.274H102.8v-51.567h70.147V160.274z"/>
	</g>
	<g>
		<rect x="125.381" y="102.977" width="28.214" height="6.81"/>
		<path d="M139.488,116.598c-11.016,0-19.945,8.931-19.945,19.946c0,11.015,8.93,19.945,19.945,19.945s19.945-8.931,19.945-19.945
			C159.433,125.529,150.503,116.598,139.488,116.598z M174.029,161.355H103.88v-51.568h70.148V161.355z"/>
	</g>
	<g>
		<rect x="126.462" y="104.058" width="28.214" height="6.81"/>
		<path d="M140.569,117.679c-11.017,0-19.945,8.93-19.945,19.945s8.929,19.945,19.945,19.945c11.016,0,19.945-8.93,19.945-19.945
			S151.584,117.679,140.569,117.679z M175.109,162.435h-70.147v-51.567h70.147V162.435z"/>
	</g>
	<g>
		<rect x="127.542" y="105.138" width="28.214" height="6.811"/>
		<path d="M141.649,118.76c-11.017,0-19.945,8.93-19.945,19.945s8.929,19.945,19.945,19.945c11.016,0,19.946-8.93,19.946-19.945
			S152.664,118.76,141.649,118.76z M176.189,163.515h-70.147v-51.566h70.147V163.515z"/>
	</g>
	<g>
		<rect x="128.622" y="106.219" width="28.214" height="6.81"/>
		<path d="M142.729,119.841c-11.016,0-19.944,8.93-19.944,19.944c0,11.017,8.929,19.945,19.944,19.945
			c11.017,0,19.946-8.929,19.946-19.945C162.675,128.77,153.745,119.841,142.729,119.841z M177.27,164.596h-70.147v-51.567h70.147
			V164.596z"/>
	</g>
	<g>
		<rect x="129.702" y="107.3" width="28.215" height="6.81"/>
		<path d="M143.81,120.921c-11.017,0-19.945,8.93-19.945,19.945s8.929,19.945,19.945,19.945c11.016,0,19.945-8.93,19.945-19.945
			S154.825,120.921,143.81,120.921z M178.35,165.677h-70.147v-51.567h70.147V165.677z"/>
	</g>
	<g>
		<rect x="130.783" y="108.38" width="28.214" height="6.81"/>
		<path d="M144.89,122.001c-11.017,0-19.945,8.931-19.945,19.945c0,11.016,8.929,19.946,19.945,19.946
			c11.016,0,19.946-8.931,19.946-19.946C164.836,130.931,155.906,122.001,144.89,122.001z M179.43,166.757h-70.147v-51.567h70.147
			V166.757z"/>
	</g>
	<g>
		<rect x="131.865" y="109.46" width="28.214" height="6.811"/>
		<path d="M145.97,123.082c-11.016,0-19.944,8.93-19.944,19.945c0,11.015,8.929,19.945,19.944,19.945s19.946-8.931,19.946-19.945
			C165.916,132.011,156.986,123.082,145.97,123.082z M180.51,167.837h-70.147V116.27h70.147V167.837z"/>
	</g>
	<g>
		<rect x="132.945" y="110.541" width="28.214" height="6.81"/>
		<path d="M147.051,124.162c-11.017,0-19.945,8.93-19.945,19.945s8.929,19.945,19.945,19.945c11.016,0,19.945-8.93,19.945-19.945
			S158.067,124.162,147.051,124.162z M181.591,168.918h-70.147V117.35h70.147V168.918z"/>
	</g>
	<g>
		<rect x="134.025" y="111.621" width="28.215" height="6.81"/>
		<path d="M148.132,125.242c-11.017,0-19.946,8.93-19.946,19.945s8.93,19.945,19.946,19.945c11.016,0,19.945-8.93,19.945-19.945
			S159.148,125.242,148.132,125.242z M182.671,169.998h-70.147V118.43h70.147V169.998z"/>
	</g>
	<g>
		<rect x="135.105" y="112.702" width="28.215" height="6.81"/>
		<path d="M149.212,126.323c-11.017,0-19.945,8.93-19.945,19.944c0,11.017,8.929,19.946,19.945,19.946
			c11.016,0,19.945-8.93,19.945-19.946C169.157,135.253,160.228,126.323,149.212,126.323z M183.752,171.079h-70.147v-51.567h70.147
			V171.079z"/>
	</g>
	<g>
		<rect x="136.186" y="113.782" width="28.214" height="6.81"/>
		<path d="M150.292,127.403c-11.017,0-19.945,8.93-19.945,19.945s8.929,19.945,19.945,19.945c11.016,0,19.945-8.93,19.945-19.945
			S161.308,127.403,150.292,127.403z M184.832,172.159h-70.147v-51.567h70.147V172.159z"/>
	</g>
	<g>
		<rect x="137.266" y="114.862" width="28.214" height="6.81"/>
		<path d="M151.372,128.483c-11.017,0-19.945,8.931-19.945,19.946c0,11.015,8.929,19.944,19.945,19.944
			c11.016,0,19.946-8.93,19.946-19.944C171.319,137.414,162.388,128.483,151.372,128.483z M185.912,173.24h-70.147v-51.568h70.147
			V173.24z"/>
	</g>
	<g>
		<rect x="138.347" y="115.943" width="28.214" height="6.81"/>
		<path d="M152.452,129.564c-11.016,0-19.944,8.93-19.944,19.945s8.929,19.945,19.944,19.945c11.017,0,19.946-8.93,19.946-19.945
			S163.469,129.564,152.452,129.564z M186.993,174.32h-70.147v-51.567h70.147V174.32z"/>
	</g>
	<g>
		<rect x="139.427" y="117.023" width="28.214" height="6.81"/>
		<path d="M153.533,130.644c-11.017,0-19.945,8.93-19.945,19.945s8.929,19.945,19.945,19.945c11.016,0,19.945-8.93,19.945-19.945
			S164.549,130.644,153.533,130.644z M188.073,175.4h-70.147v-51.567h70.147V175.4z"/>
	</g>
	<g>
		<rect x="140.507" y="118.104" width="28.214" height="6.81"/>
		<path d="M154.615,131.725c-11.017,0-19.946,8.93-19.946,19.944c0,11.017,8.93,19.945,19.946,19.945
			c11.015,0,19.944-8.929,19.944-19.945C174.559,140.655,165.629,131.725,154.615,131.725z M189.154,176.48h-70.147v-51.566h70.147
			V176.48z"/>
	</g>
	<g>
		<rect x="141.587" y="119.184" width="28.215" height="6.81"/>
		<path d="M155.695,132.805c-11.017,0-19.945,8.93-19.945,19.945s8.929,19.945,19.945,19.945c11.016,0,19.945-8.93,19.945-19.945
			S166.71,132.805,155.695,132.805z M190.235,177.561h-70.147v-51.567h70.147V177.561z"/>
	</g>
	<g>
		<rect x="142.668" y="120.264" width="28.214" height="6.81"/>
		<path d="M156.775,133.885c-11.017,0-19.945,8.93-19.945,19.945s8.929,19.945,19.945,19.945c11.016,0,19.945-8.93,19.945-19.945
			S167.79,133.885,156.775,133.885z M191.315,178.641h-70.147v-51.567h70.147V178.641z"/>
	</g>
	<g>
		<rect x="143.749" y="121.344" width="28.213" height="6.811"/>
		<path d="M157.855,134.967c-11.016,0-19.944,8.929-19.944,19.945c0,11.015,8.929,19.945,19.944,19.945
			c11.017,0,19.945-8.931,19.945-19.945C177.8,143.895,168.871,134.967,157.855,134.967z M192.396,179.721h-70.147v-51.566h70.147
			V179.721z"/>
	</g>
	<g>
		<rect x="144.829" y="122.426" width="28.214" height="6.81"/>
		<path d="M158.936,136.047c-11.017,0-19.945,8.93-19.945,19.945s8.929,19.945,19.945,19.945c11.016,0,19.945-8.93,19.945-19.945
			S169.951,136.047,158.936,136.047z M193.476,180.802h-70.147v-51.567h70.147V180.802z"/>
	</g>
	<g>
		<rect x="145.909" y="123.506" width="28.214" height="6.81"/>
		<path d="M160.016,137.127c-11.017,0-19.945,8.93-19.945,19.945s8.929,19.945,19.945,19.945c11.016,0,19.945-8.93,19.945-19.945
			S171.031,137.127,160.016,137.127z M194.556,181.883h-70.147v-51.567h70.147V181.883z"/>
	</g>
	<g>
		<rect x="146.99" y="124.587" width="28.215" height="6.81"/>
		<path d="M161.097,138.208c-11.017,0-19.945,8.93-19.945,19.944c0,11.017,8.929,19.946,19.945,19.946
			c11.016,0,19.944-8.93,19.944-19.946C181.041,147.137,172.113,138.208,161.097,138.208z M195.637,182.964h-70.148v-51.567h70.148
			V182.964z"/>
	</g>
	<g>
		<rect x="148.071" y="125.667" width="28.214" height="6.81"/>
		<path d="M162.177,139.288c-11.017,0-19.945,8.93-19.945,19.945s8.929,19.945,19.945,19.945c11.016,0,19.945-8.93,19.945-19.945
			S173.193,139.288,162.177,139.288z M196.717,184.044H126.57v-51.567h70.147V184.044z"/>
	</g>
	<g>
		<rect x="149.151" y="126.747" width="28.214" height="6.81"/>
		<path d="M163.257,140.369c-11.017,0-19.945,8.929-19.945,19.944s8.929,19.945,19.945,19.945c11.016,0,19.945-8.93,19.945-19.945
			S174.273,140.369,163.257,140.369z M197.797,185.124H127.65v-51.567h70.147V185.124z"/>
	</g>
	<g>
		<rect x="150.231" y="127.827" width="28.214" height="6.81"/>
		<path d="M164.337,141.449c-11.016,0-19.944,8.93-19.944,19.945c0,11.015,8.929,19.945,19.944,19.945
			c11.017,0,19.945-8.931,19.945-19.945C184.282,150.379,175.354,141.449,164.337,141.449z M198.877,186.204h-70.146v-51.567h70.146
			V186.204z"/>
	</g>
	<g>
		<rect x="151.312" y="128.908" width="28.214" height="6.81"/>
		<path d="M165.418,142.529c-11.017,0-19.945,8.93-19.945,19.945s8.929,19.945,19.945,19.945c11.016,0,19.945-8.93,19.945-19.945
			S176.434,142.529,165.418,142.529z M199.958,187.285h-70.147v-51.567h70.147V187.285z"/>
	</g>
</g>
<g>
	<rect x="42.188" y="19.785" fill="#FFFFFF" width="28.215" height="6.811"/>
	<path fill="#FFFFFF" d="M90.835,78.162H20.688V26.595h70.147V78.162z M56.295,33.406c-11.016,0-19.945,8.931-19.945,19.945
		c0,11.016,8.929,19.945,19.945,19.945s19.946-8.93,19.946-19.945C76.241,42.337,67.311,33.406,56.295,33.406z"/>
</g>
</svg>
