<?xml version="1.0" encoding="utf-8"?>
<!-- Generator: Adobe Illustrator 16.0.0, SVG Export Plug-In . SVG Version: 6.00 Build 0)  -->
<!DOCTYPE svg PUBLIC "-//W3C//DTD SVG 1.1//EN" "http://www.w3.org/Graphics/SVG/1.1/DTD/svg11.dtd">
<svg version="1.1" id="Calque_1" xmlns="http://www.w3.org/2000/svg" xmlns:xlink="http://www.w3.org/1999/xlink" x="0px" y="0px"
	 width="112.143px" height="103.57px" viewBox="0 0 112.143 103.57" enable-background="new 0 0 112.143 103.57"
	 xml:space="preserve">
<rect x="0.028" y="0" fill="#757575" width="112.145" height="103.572"/>
<g>
	<path fill="none" stroke="#FFFFFF" stroke-width="8" stroke-miterlimit="10" d="M34.427,38.118
		c2.816-11.122,11.685-16.833,22.188-16.833c12.769,0,23.12,10.799,23.12,25.606"/>
	<path fill="#FFFFFF" d="M89.572,80.329H24.909V46.59h64.661L89.572,80.329L89.572,80.329z M57.24,52.013
		c-4.237,0-7.672,3.775-7.672,8.434s3.436,14.46,7.672,14.46c4.235,0,7.671-9.802,7.671-14.46
		C64.911,55.79,61.477,52.013,57.24,52.013z"/>
</g>
<g opacity="0.3">
	<g>
		<path fill="none" stroke="#000000" stroke-width="8" stroke-miterlimit="10" d="M34.427,38.118
			c2.816-11.122,11.685-16.833,22.188-16.833c12.769,0,23.12,10.799,23.12,25.606"/>
		<path d="M57.24,52.013c-4.237,0-7.672,3.775-7.672,8.434s3.436,14.46,7.672,14.46c4.235,0,7.671-9.802,7.671-14.46
			C64.911,55.79,61.477,52.013,57.24,52.013z M89.572,80.329H24.909V46.59h64.661L89.572,80.329L89.572,80.329z"/>
	</g>
	<g>
		<path fill="none" stroke="#000000" stroke-width="8" stroke-miterlimit="10" d="M35.347,39.038
			c2.816-11.122,11.685-16.833,22.189-16.833c12.769,0,23.12,10.799,23.12,25.606"/>
		<path d="M58.16,52.934c-4.237,0-7.671,3.775-7.671,8.433c0,4.659,3.436,14.461,7.671,14.461c4.236,0,7.672-9.802,7.672-14.461
			C65.832,56.711,62.398,52.934,58.16,52.934z M90.492,81.25H25.83V47.51h64.662L90.492,81.25L90.492,81.25z"/>
	</g>
	<g>
		<path fill="none" stroke="#000000" stroke-width="8" stroke-miterlimit="10" d="M36.268,39.96
			c2.816-11.123,11.685-16.833,22.188-16.833c12.769,0,23.121,10.799,23.121,25.606"/>
		<path d="M59.082,53.855c-4.238,0-7.672,3.775-7.672,8.434s3.436,14.46,7.672,14.46c4.234,0,7.671-9.802,7.671-14.46
			C66.753,57.632,63.318,53.855,59.082,53.855z M91.413,82.171H26.751v-33.74h64.662L91.413,82.171L91.413,82.171z"/>
	</g>
	<g>
		<path fill="none" stroke="#000000" stroke-width="8" stroke-miterlimit="10" d="M37.189,40.88
			c2.816-11.123,11.684-16.833,22.188-16.833c12.77,0,23.12,10.799,23.12,25.606"/>
		<path d="M60.002,54.776c-4.237,0-7.671,3.774-7.671,8.433s3.436,14.46,7.671,14.46c4.236,0,7.672-9.802,7.672-14.46
			C67.674,58.552,64.24,54.776,60.002,54.776z M92.334,83.091H27.672V49.351h64.662L92.334,83.091L92.334,83.091z"/>
	</g>
	<g>
		<path fill="none" stroke="#000000" stroke-width="8" stroke-miterlimit="10" d="M38.11,41.801
			c2.817-11.122,11.685-16.833,22.188-16.833c12.769,0,23.12,10.799,23.12,25.606"/>
		<path d="M60.923,55.696c-4.237,0-7.672,3.775-7.672,8.434s3.436,14.46,7.672,14.46c4.235,0,7.671-9.802,7.671-14.46
			C68.594,59.472,65.159,55.696,60.923,55.696z M93.254,84.011H28.592V50.273h64.661L93.254,84.011L93.254,84.011z"/>
	</g>
	<g>
		<path fill="none" stroke="#000000" stroke-width="8" stroke-miterlimit="10" d="M39.031,42.721
			c2.816-11.122,11.685-16.833,22.188-16.833c12.769,0,23.12,10.799,23.12,25.606"/>
		<path d="M61.844,56.617c-4.237,0-7.672,3.775-7.672,8.434s3.436,14.46,7.672,14.46c4.235,0,7.671-9.802,7.671-14.46
			C69.515,60.393,66.08,56.617,61.844,56.617z M94.175,84.932H29.513V51.193h64.661L94.175,84.932L94.175,84.932z"/>
	</g>
	<g>
		<path fill="none" stroke="#000000" stroke-width="8" stroke-miterlimit="10" d="M39.951,43.642
			C42.768,32.52,51.636,26.809,62.14,26.809c12.769,0,23.12,10.799,23.12,25.606"/>
		<path d="M62.765,57.538c-4.237,0-7.672,3.775-7.672,8.434s3.436,14.46,7.672,14.46c4.235,0,7.671-9.802,7.671-14.46
			C70.436,61.314,67.001,57.538,62.765,57.538z M95.096,85.853H30.434V52.114h64.661L95.096,85.853L95.096,85.853z"/>
	</g>
	<g>
		<path fill="none" stroke="#000000" stroke-width="8" stroke-miterlimit="10" d="M40.872,44.563
			C43.688,33.441,52.557,27.73,63.061,27.73c12.769,0,23.12,10.798,23.12,25.606"/>
		<path d="M63.686,58.459c-4.237,0-7.672,3.775-7.672,8.434s3.436,14.46,7.672,14.46c4.235,0,7.671-9.802,7.671-14.46
			C71.357,62.235,67.922,58.459,63.686,58.459z M96.017,86.774H31.354V53.035h64.662L96.017,86.774L96.017,86.774z"/>
	</g>
	<g>
		<path fill="none" stroke="#000000" stroke-width="8" stroke-miterlimit="10" d="M41.793,45.484
			c2.816-11.122,11.685-16.833,22.189-16.833c12.769,0,23.119,10.798,23.119,25.606"/>
		<path d="M64.606,59.38c-4.236,0-7.671,3.775-7.671,8.434c0,4.657,3.436,14.46,7.671,14.46s7.672-9.803,7.672-14.46
			C72.278,63.155,68.842,59.38,64.606,59.38z M96.938,87.695H32.275V53.956h64.662L96.938,87.695L96.938,87.695z"/>
	</g>
	<g>
		<path fill="none" stroke="#000000" stroke-width="8" stroke-miterlimit="10" d="M42.714,46.405
			c2.816-11.122,11.685-16.833,22.188-16.833c12.77,0,23.121,10.799,23.121,25.606"/>
		<path d="M65.527,60.301c-4.237,0-7.672,3.775-7.672,8.433c0,4.658,3.436,14.461,7.672,14.461c4.235,0,7.671-9.803,7.671-14.461
			C73.198,64.076,69.763,60.301,65.527,60.301z M97.859,88.615H33.196V54.876h64.661v33.739H97.859z"/>
	</g>
	<g>
		<path fill="none" stroke="#000000" stroke-width="8" stroke-miterlimit="10" d="M43.634,47.325
			c2.816-11.122,11.685-16.833,22.188-16.833c12.769,0,23.12,10.798,23.12,25.607"/>
		<path d="M66.448,61.22c-4.237,0-7.672,3.776-7.672,8.434c0,4.658,3.436,14.46,7.672,14.46c4.235,0,7.671-9.802,7.671-14.46
			C74.118,64.997,70.684,61.22,66.448,61.22z M98.779,89.536H34.116V55.797h64.661L98.779,89.536L98.779,89.536z"/>
	</g>
	<g>
		<path fill="none" stroke="#000000" stroke-width="8" stroke-miterlimit="10" d="M44.555,48.246
			c2.816-11.122,11.685-16.833,22.188-16.833c12.769,0,23.12,10.798,23.12,25.606"/>
		<path d="M67.368,62.141c-4.237,0-7.672,3.775-7.672,8.434s3.436,14.46,7.672,14.46c4.235,0,7.671-9.802,7.671-14.46
			C75.039,65.918,71.605,62.141,67.368,62.141z M99.699,90.457H35.037V56.718h64.661L99.699,90.457L99.699,90.457z"/>
	</g>
	<g>
		<path fill="none" stroke="#000000" stroke-width="8" stroke-miterlimit="10" d="M45.475,49.167
			c2.817-11.122,11.685-16.833,22.189-16.833c12.769,0,23.12,10.799,23.12,25.606"/>
		<path d="M68.289,63.062c-4.237,0-7.672,3.775-7.672,8.434s3.436,14.46,7.672,14.46c4.235,0,7.671-9.802,7.671-14.46
			C75.96,66.839,72.526,63.062,68.289,63.062z M100.62,91.378H35.958V57.638h64.661L100.62,91.378L100.62,91.378z"/>
	</g>
	<g>
		<path fill="none" stroke="#000000" stroke-width="8" stroke-miterlimit="10" d="M46.396,50.087
			c2.817-11.122,11.685-16.833,22.189-16.833c12.769,0,23.12,10.799,23.12,25.606"/>
		<path d="M69.21,63.983c-4.237,0-7.672,3.775-7.672,8.434s3.436,14.46,7.672,14.46c4.235,0,7.671-9.802,7.671-14.46
			C76.881,67.76,73.447,63.983,69.21,63.983z M101.541,92.299H36.879V58.559h64.662L101.541,92.299L101.541,92.299z"/>
	</g>
	<g>
		<path fill="none" stroke="#000000" stroke-width="8" stroke-miterlimit="10" d="M47.317,51.009
			c2.816-11.123,11.684-16.833,22.189-16.833c12.769,0,23.12,10.799,23.12,25.607"/>
		<path d="M70.13,64.904c-4.236,0-7.672,3.775-7.672,8.434s3.437,14.46,7.672,14.46c4.236,0,7.671-9.802,7.671-14.46
			C77.801,68.68,74.366,64.904,70.13,64.904z M102.462,93.219H37.8V59.48h64.661v33.739H102.462z"/>
	</g>
	<g>
		<path fill="none" stroke="#000000" stroke-width="8" stroke-miterlimit="10" d="M48.238,51.929
			c2.817-11.122,11.685-16.833,22.189-16.833c12.768,0,23.119,10.799,23.119,25.606"/>
		<path d="M71.052,65.825c-4.238,0-7.673,3.774-7.673,8.433c0,4.659,3.436,14.46,7.673,14.46c4.234,0,7.67-9.801,7.67-14.46
			C78.722,69.601,75.287,65.825,71.052,65.825z M103.382,94.139H38.72V60.4h64.661L103.382,94.139L103.382,94.139z"/>
	</g>
	<g>
		<path fill="none" stroke="#000000" stroke-width="8" stroke-miterlimit="10" d="M49.158,52.849
			c2.816-11.122,11.685-16.833,22.188-16.833c12.769,0,23.12,10.799,23.12,25.606"/>
		<path d="M71.972,66.745c-4.237,0-7.672,3.775-7.672,8.434c0,4.659,3.436,14.46,7.672,14.46c4.235,0,7.671-9.801,7.671-14.46
			C79.643,70.521,76.208,66.745,71.972,66.745z M104.303,95.061H39.641V61.322h64.661L104.303,95.061L104.303,95.061z"/>
	</g>
	<g>
		<path fill="none" stroke="#000000" stroke-width="8" stroke-miterlimit="10" d="M50.079,53.77
			c2.816-11.122,11.685-16.833,22.188-16.833c12.769,0,23.12,10.799,23.12,25.606"/>
		<path d="M72.893,67.666c-4.237,0-7.672,3.775-7.672,8.434s3.436,14.46,7.672,14.46c4.235,0,7.671-9.802,7.671-14.46
			C80.564,71.442,77.129,67.666,72.893,67.666z M105.224,95.981H40.562V62.242h64.661L105.224,95.981L105.224,95.981z"/>
	</g>
	<g>
		<path fill="none" stroke="#000000" stroke-width="8" stroke-miterlimit="10" d="M51,54.691
			c2.816-11.122,11.685-16.833,22.188-16.833c12.769,0,23.12,10.799,23.12,25.606"/>
		<path d="M73.814,68.587c-4.237,0-7.672,3.775-7.672,8.434s3.436,14.46,7.672,14.46c4.235,0,7.671-9.802,7.671-14.46
			C81.485,72.363,78.05,68.587,73.814,68.587z M106.145,96.902H41.482V63.163h64.662L106.145,96.902L106.145,96.902z"/>
	</g>
	<g>
		<path fill="none" stroke="#000000" stroke-width="8" stroke-miterlimit="10" d="M51.921,55.612
			C54.738,44.49,63.606,38.779,74.11,38.779c12.769,0,23.12,10.799,23.12,25.607"/>
		<path d="M74.734,69.508c-4.236,0-7.671,3.775-7.671,8.434s3.435,14.46,7.671,14.46s7.672-9.802,7.672-14.46
			C82.406,73.284,78.97,69.508,74.734,69.508z M107.066,97.823H42.403V64.084h64.662L107.066,97.823L107.066,97.823z"/>
	</g>
	<g>
		<path fill="none" stroke="#000000" stroke-width="8" stroke-miterlimit="10" d="M52.842,56.533
			C55.657,45.411,64.527,39.7,75.03,39.7c12.769,0,23.12,10.798,23.12,25.606"/>
		<path d="M75.656,70.428c-4.238,0-7.672,3.775-7.672,8.434s3.436,14.46,7.672,14.46c4.234,0,7.67-9.802,7.67-14.46
			C83.325,74.205,79.892,70.428,75.656,70.428z M107.986,98.744H43.323V65.005h64.661L107.986,98.744L107.986,98.744z"/>
	</g>
	<g>
		<path fill="none" stroke="#000000" stroke-width="8" stroke-miterlimit="10" d="M53.762,57.454
			C56.578,46.331,65.447,40.62,75.95,40.62c12.769,0,23.12,10.799,23.12,25.607"/>
		<path d="M76.575,71.349c-4.237,0-7.672,3.775-7.672,8.433c0,4.659,3.436,14.46,7.672,14.46s7.671-9.801,7.671-14.46
			C84.246,75.126,80.812,71.349,76.575,71.349z M108.906,99.664H44.244V65.925h64.661L108.906,99.664L108.906,99.664z"/>
	</g>
	<g>
		<path fill="none" stroke="#000000" stroke-width="8" stroke-miterlimit="10" d="M54.683,58.374
			c2.816-11.122,11.685-16.833,22.188-16.833c12.769,0,23.12,10.799,23.12,25.606"/>
		<path d="M77.496,72.269c-4.237,0-7.672,3.775-7.672,8.434s3.436,14.46,7.672,14.46c4.235,0,7.671-9.802,7.671-14.46
			C85.167,76.046,81.733,72.269,77.496,72.269z M109.827,100.586H45.165v-33.74h64.661L109.827,100.586L109.827,100.586z"/>
	</g>
	<g>
		<path fill="none" stroke="#000000" stroke-width="8" stroke-miterlimit="10" d="M55.604,59.295
			c2.816-11.122,11.685-16.833,22.188-16.833c12.769,0,23.12,10.799,23.12,25.606"/>
		<path d="M78.417,73.19c-4.237,0-7.672,3.775-7.672,8.434s3.436,14.46,7.672,14.46c4.235,0,7.671-9.802,7.671-14.46
			C86.088,76.967,82.654,73.19,78.417,73.19z M110.748,101.506H46.086V67.766h64.661L110.748,101.506L110.748,101.506z"/>
	</g>
	<g>
		<path fill="none" stroke="#000000" stroke-width="8" stroke-miterlimit="10" d="M56.525,60.216
			c2.816-11.122,11.684-16.833,22.188-16.833c12.769,0,23.12,10.799,23.12,25.606"/>
		<path d="M79.337,74.111c-4.236,0-7.671,3.775-7.671,8.434s3.436,14.46,7.671,14.46c4.236,0,7.672-9.802,7.672-14.46
			C87.009,77.887,83.574,74.111,79.337,74.111z M111.669,102.427H47.007V68.687h64.662L111.669,102.427L111.669,102.427z"/>
	</g>
	<g>
		<path fill="none" stroke="#000000" stroke-width="8" stroke-miterlimit="10" d="M57.446,61.136
			c2.815-11.122,11.684-16.833,22.188-16.833c12.768,0,23.119,10.799,23.119,25.606"/>
		<path d="M80.259,75.032c-4.238,0-7.672,3.775-7.672,8.434s3.435,14.46,7.672,14.46c4.235,0,7.67-9.802,7.67-14.46
			C87.929,78.808,84.495,75.032,80.259,75.032z M112.589,103.347H47.928V69.608h64.661V103.347L112.589,103.347z"/>
	</g>
	<g>
		<path fill="none" stroke="#000000" stroke-width="8" stroke-miterlimit="10" d="M58.366,62.057
			c2.816-11.122,11.684-16.833,22.188-16.833c12.769,0,23.121,10.799,23.121,25.607"/>
		<path d="M81.179,75.953c-4.237,0-7.672,3.775-7.672,8.434s3.436,14.459,7.672,14.459c4.235,0,7.671-9.801,7.671-14.459
			S85.415,75.953,81.179,75.953z M113.51,104.268H48.848V70.529h64.661L113.51,104.268L113.51,104.268z"/>
	</g>
	<g>
		<path fill="none" stroke="#000000" stroke-width="8" stroke-miterlimit="10" d="M59.286,62.977
			c2.816-11.122,11.685-16.833,22.188-16.833c12.769,0,23.12,10.798,23.12,25.607"/>
		<path d="M82.1,76.874c-4.237,0-7.672,3.775-7.672,8.433c0,4.658,3.436,14.461,7.672,14.461c4.235,0,7.671-9.803,7.671-14.461
			C89.771,80.65,86.336,76.874,82.1,76.874z M114.431,105.188H49.769V71.449h64.662V105.188L114.431,105.188z"/>
	</g>
	<g>
		<path fill="none" stroke="#000000" stroke-width="8" stroke-miterlimit="10" d="M60.207,63.898
			c2.816-11.122,11.685-16.833,22.188-16.833c12.769,0,23.12,10.798,23.12,25.606"/>
		<path d="M83.021,77.794c-4.237,0-7.672,3.776-7.672,8.435c0,4.657,3.436,14.459,7.672,14.459c4.235,0,7.671-9.802,7.671-14.459
			C90.692,81.57,87.257,77.794,83.021,77.794z M115.352,106.109H50.69V72.371h64.661L115.352,106.109L115.352,106.109z"/>
	</g>
	<g>
		<path fill="none" stroke="#000000" stroke-width="8" stroke-miterlimit="10" d="M61.128,64.819
			c2.816-11.122,11.685-16.833,22.188-16.833c12.769,0,23.12,10.799,23.12,25.606"/>
		<path d="M83.942,78.715c-4.237,0-7.672,3.775-7.672,8.434s3.436,14.46,7.672,14.46c4.235,0,7.671-9.802,7.671-14.46
			C91.613,82.491,88.178,78.715,83.942,78.715z M116.273,107.03H51.611V73.291h64.661L116.273,107.03L116.273,107.03z"/>
	</g>
	<g>
		<path fill="none" stroke="#000000" stroke-width="8" stroke-miterlimit="10" d="M62.049,65.74
			c2.816-11.122,11.685-16.833,22.188-16.833c12.769,0,23.12,10.799,23.12,25.606"/>
		<path d="M84.863,79.635c-4.237,0-7.672,3.775-7.672,8.434s3.436,14.46,7.672,14.46c4.235,0,7.671-9.802,7.671-14.46
			C92.533,83.412,89.099,79.635,84.863,79.635z M117.194,107.951H52.531V74.212h64.661L117.194,107.951L117.194,107.951z"/>
	</g>
	<g>
		<path fill="none" stroke="#000000" stroke-width="8" stroke-miterlimit="10" d="M62.97,66.661
			c2.816-11.122,11.684-16.833,22.188-16.833c12.77,0,23.121,10.799,23.121,25.606"/>
		<path d="M85.783,80.556c-4.237,0-7.673,3.775-7.673,8.434s3.436,14.46,7.673,14.46c4.235,0,7.671-9.802,7.671-14.46
			C93.454,84.333,90.02,80.556,85.783,80.556z M118.114,108.872H53.452V75.133h64.66L118.114,108.872L118.114,108.872z"/>
	</g>
	<g>
		<path fill="none" stroke="#000000" stroke-width="8" stroke-miterlimit="10" d="M63.89,67.582
			c2.816-11.123,11.685-16.833,22.188-16.833c12.769,0,23.12,10.799,23.12,25.607"/>
		<path d="M86.703,81.476c-4.237,0-7.672,3.775-7.672,8.435c0,4.657,3.437,14.46,7.672,14.46s7.671-9.803,7.671-14.46
			S90.94,81.476,86.703,81.476z M119.034,109.793H54.373V76.053h64.662V109.793L119.034,109.793z"/>
	</g>
	<g>
		<path fill="none" stroke="#000000" stroke-width="8" stroke-miterlimit="10" d="M64.811,68.502
			C67.627,57.381,76.495,51.67,86.999,51.67c12.769,0,23.12,10.799,23.12,25.605"/>
		<path d="M87.624,82.398c-4.237,0-7.672,3.774-7.672,8.433s3.436,14.46,7.672,14.46c4.235,0,7.671-9.802,7.671-14.46
			C95.295,86.174,91.861,82.398,87.624,82.398z M119.955,110.713H55.293V76.974h64.661L119.955,110.713L119.955,110.713z"/>
	</g>
	<g>
		<path fill="none" stroke="#000000" stroke-width="8" stroke-miterlimit="10" d="M65.732,69.423
			C68.548,58.301,77.416,52.59,87.92,52.59c12.769,0,23.12,10.799,23.12,25.606"/>
		<path d="M88.545,83.318c-4.237,0-7.672,3.775-7.672,8.434s3.436,14.461,7.672,14.461c4.235,0,7.671-9.803,7.671-14.461
			C96.216,87.095,92.781,83.318,88.545,83.318z M120.876,111.635H56.214v-33.74h64.661L120.876,111.635L120.876,111.635z"/>
	</g>
	<g>
		<path fill="none" stroke="#000000" stroke-width="8" stroke-miterlimit="10" d="M66.653,70.344
			C69.469,59.221,78.337,53.51,88.841,53.51c12.769,0,23.119,10.799,23.119,25.606"/>
		<path d="M89.466,84.239c-4.238,0-7.672,3.775-7.672,8.434s3.436,14.46,7.672,14.46c4.234,0,7.671-9.802,7.671-14.46
			C97.137,88.015,93.702,84.239,89.466,84.239z M121.797,112.554H57.135V78.815h64.661L121.797,112.554L121.797,112.554z"/>
	</g>
	<g>
		<path fill="none" stroke="#000000" stroke-width="8" stroke-miterlimit="10" d="M67.573,71.264
			c2.816-11.122,11.685-16.833,22.188-16.833c12.769,0,23.12,10.799,23.12,25.606"/>
		<path d="M90.387,85.16c-4.237,0-7.673,3.775-7.673,8.434s3.436,14.46,7.673,14.46c4.235,0,7.671-9.802,7.671-14.46
			C98.058,88.936,94.622,85.16,90.387,85.16z M122.718,113.475H58.056V79.736h64.66v33.739H122.718z"/>
	</g>
	<g>
		<path fill="none" stroke="#000000" stroke-width="8" stroke-miterlimit="10" d="M68.493,72.185
			c2.816-11.122,11.686-16.833,22.189-16.833c12.768,0,23.119,10.799,23.119,25.606"/>
		<path d="M91.307,86.081c-4.237,0-7.671,3.775-7.671,8.434c0,4.657,3.435,14.46,7.671,14.46s7.671-9.803,7.671-14.46
			S95.544,86.081,91.307,86.081z M123.638,114.396H58.976V80.657h64.661L123.638,114.396L123.638,114.396z"/>
	</g>
	<g>
		<path fill="none" stroke="#000000" stroke-width="8" stroke-miterlimit="10" d="M69.414,73.105
			c2.816-11.121,11.685-16.832,22.188-16.832c12.77,0,23.12,10.799,23.12,25.606"/>
		<path d="M92.228,87.002c-4.236,0-7.672,3.775-7.672,8.434s3.436,14.46,7.672,14.46c4.235,0,7.671-9.802,7.671-14.46
			S96.464,87.002,92.228,87.002z M124.559,115.316H59.897V81.578h64.661L124.559,115.316L124.559,115.316z"/>
	</g>
	<g>
		<path fill="none" stroke="#000000" stroke-width="8" stroke-miterlimit="10" d="M70.335,74.026
			c2.816-11.122,11.685-16.833,22.188-16.833c12.769,0,23.12,10.799,23.12,25.606"/>
		<path d="M93.149,87.922c-4.237,0-7.672,3.775-7.672,8.434c0,4.659,3.436,14.46,7.672,14.46c4.235,0,7.671-9.801,7.671-14.46
			C100.82,91.698,97.385,87.922,93.149,87.922z M125.48,116.238H60.818v-33.74h64.661L125.48,116.238L125.48,116.238z"/>
	</g>
	<g>
		<path fill="none" stroke="#000000" stroke-width="8" stroke-miterlimit="10" d="M71.256,74.947
			c2.816-11.121,11.685-16.832,22.188-16.832c12.769,0,23.12,10.798,23.12,25.605"/>
		<path d="M94.07,88.843c-4.237,0-7.672,3.775-7.672,8.435c0,4.658,3.436,14.459,7.672,14.459c4.235,0,7.671-9.801,7.671-14.459
			S98.306,88.843,94.07,88.843z M126.401,117.158H61.739V83.419H126.4L126.401,117.158L126.401,117.158z"/>
	</g>
	<g>
		<path fill="none" stroke="#000000" stroke-width="8" stroke-miterlimit="10" d="M72.177,75.868
			c2.816-11.122,11.685-16.833,22.188-16.833c12.77,0,23.121,10.799,23.121,25.606"/>
		<path d="M94.99,89.763c-4.237,0-7.672,3.775-7.672,8.434s3.436,14.46,7.672,14.46c4.235,0,7.671-9.802,7.671-14.46
			C102.661,93.54,99.227,89.763,94.99,89.763z M127.322,118.079H62.659V84.34h64.661L127.322,118.079L127.322,118.079z"/>
	</g>
	<g>
		<path fill="none" stroke="#000000" stroke-width="8" stroke-miterlimit="10" d="M73.097,76.789
			c2.817-11.122,11.686-16.833,22.189-16.833c12.768,0,23.119,10.799,23.119,25.606"/>
		<path d="M95.911,90.684c-4.238,0-7.672,3.775-7.672,8.434s3.436,14.46,7.672,14.46c4.234,0,7.67-9.802,7.67-14.46
			C103.581,94.461,100.147,90.684,95.911,90.684z M128.242,119H63.579V85.26h64.662L128.242,119L128.242,119z"/>
	</g>
	<g>
		<path fill="none" stroke="#000000" stroke-width="8" stroke-miterlimit="10" d="M74.018,77.71
			c2.817-11.122,11.685-16.833,22.188-16.833c12.77,0,23.121,10.799,23.121,25.606"/>
		<path d="M96.831,91.605c-4.237,0-7.672,3.775-7.672,8.434s3.436,14.459,7.672,14.459s7.671-9.801,7.671-14.459
			C104.502,95.382,101.068,91.605,96.831,91.605z M129.163,119.921H64.501V86.181h64.66v33.739H129.163z"/>
	</g>
	<g>
		<path fill="none" stroke="#000000" stroke-width="8" stroke-miterlimit="10" d="M74.939,78.631
			c2.816-11.122,11.685-16.834,22.188-16.834c12.769,0,23.12,10.799,23.12,25.607"/>
		<path d="M97.752,92.525c-4.237,0-7.672,3.776-7.672,8.435s3.436,14.46,7.672,14.46c4.235,0,7.671-9.802,7.671-14.46
			C105.423,96.302,101.99,92.525,97.752,92.525z M130.083,120.842H65.421v-33.74h64.661L130.083,120.842L130.083,120.842z"/>
	</g>
	<g>
		<path fill="none" stroke="#000000" stroke-width="8" stroke-miterlimit="10" d="M75.86,79.551
			c2.816-11.121,11.685-16.832,22.188-16.832c12.769,0,23.12,10.799,23.12,25.605"/>
		<path d="M98.673,93.447c-4.237,0-7.672,3.775-7.672,8.433c0,4.659,3.436,14.46,7.672,14.46c4.235,0,7.671-9.801,7.671-14.46
			C106.344,97.222,102.909,93.447,98.673,93.447z M131.004,121.762H66.342V88.023h64.661L131.004,121.762L131.004,121.762z"/>
	</g>
	<g>
		<path fill="none" stroke="#000000" stroke-width="8" stroke-miterlimit="10" d="M76.781,80.471
			c2.816-11.122,11.685-16.833,22.188-16.833c12.769,0,23.12,10.799,23.12,25.606"/>
		<path d="M99.594,94.367c-4.237,0-7.672,3.775-7.672,8.434s3.435,14.46,7.672,14.46c4.235,0,7.671-9.802,7.671-14.46
			C107.265,98.143,103.83,94.367,99.594,94.367z M131.925,122.682H67.263V88.943h64.661L131.925,122.682L131.925,122.682z"/>
	</g>
	<g>
		<path fill="none" stroke="#000000" stroke-width="8" stroke-miterlimit="10" d="M77.7,81.392
			C80.517,70.27,89.386,64.559,99.89,64.559c12.768,0,23.12,10.799,23.12,25.606"/>
		<path d="M100.515,95.288c-4.237,0-7.672,3.775-7.672,8.434s3.436,14.46,7.672,14.46c4.234,0,7.671-9.802,7.671-14.46
			C108.186,99.064,104.751,95.288,100.515,95.288z M132.846,123.603H68.184V89.864h64.661L132.846,123.603L132.846,123.603z"/>
	</g>
	<g>
		<path fill="none" stroke="#000000" stroke-width="8" stroke-miterlimit="10" d="M78.621,82.313
			C81.438,71.191,90.306,65.48,100.81,65.48c12.77,0,23.12,10.799,23.12,25.606"/>
		<path d="M101.435,96.209c-4.236,0-7.672,3.775-7.672,8.434s3.436,14.46,7.672,14.46s7.672-9.802,7.672-14.46
			C109.107,99.985,105.672,96.209,101.435,96.209z M133.767,124.524H69.105V90.785h64.66v33.739H133.767z"/>
	</g>
	<g>
		<path fill="none" stroke="#000000" stroke-width="8" stroke-miterlimit="10" d="M79.542,83.234
			c2.816-11.122,11.685-16.833,22.188-16.833c12.769,0,23.12,10.799,23.12,25.606"/>
		<path d="M102.356,97.13c-4.237,0-7.672,3.775-7.672,8.434s3.436,14.46,7.672,14.46c4.235,0,7.671-9.802,7.671-14.46
			C110.027,100.906,106.592,97.13,102.356,97.13z M134.687,125.445H70.025V91.706h64.662V125.445L134.687,125.445z"/>
	</g>
	<g>
		<path fill="none" stroke="#000000" stroke-width="8" stroke-miterlimit="10" d="M80.463,84.154
			c2.816-11.121,11.685-16.832,22.188-16.832c12.769,0,23.12,10.799,23.12,25.605"/>
		<path d="M103.277,98.051c-4.237,0-7.672,3.775-7.672,8.434s3.436,14.459,7.672,14.459c4.235,0,7.672-9.801,7.672-14.459
			C110.948,101.827,107.513,98.051,103.277,98.051z M135.609,126.365H70.946V92.627h64.661v33.738H135.609z"/>
	</g>
	<g>
		<path fill="none" stroke="#000000" stroke-width="8" stroke-miterlimit="10" d="M81.384,85.075
			c2.816-11.122,11.685-16.832,22.188-16.832c12.769,0,23.12,10.798,23.12,25.605"/>
		<path d="M104.198,98.97c-4.237,0-7.672,3.775-7.672,8.434s3.436,14.46,7.672,14.46c4.235,0,7.671-9.802,7.671-14.46
			C111.868,102.747,108.434,98.97,104.198,98.97z M136.529,127.286H71.866V93.547h64.661L136.529,127.286L136.529,127.286z"/>
	</g>
	<g>
		<path fill="none" stroke="#000000" stroke-width="8" stroke-miterlimit="10" d="M82.305,85.996
			c2.816-11.122,11.685-16.832,22.188-16.832c12.769,0,23.12,10.798,23.12,25.605"/>
		<path d="M105.118,99.891c-4.237,0-7.672,3.775-7.672,8.434s3.436,14.46,7.672,14.46c4.235,0,7.671-9.802,7.671-14.46
			C112.789,103.668,109.355,99.891,105.118,99.891z M137.449,128.207H72.786V94.468h64.662L137.449,128.207L137.449,128.207z"/>
	</g>
	<g>
		<path fill="none" stroke="#000000" stroke-width="8" stroke-miterlimit="10" d="M83.226,86.917
			c2.816-11.122,11.685-16.833,22.188-16.833c12.77,0,23.12,10.799,23.12,25.606"/>
		<path d="M106.038,100.812c-4.236,0-7.672,3.775-7.672,8.434s3.436,14.46,7.672,14.46s7.672-9.802,7.672-14.46
			C113.71,104.589,110.276,100.812,106.038,100.812z M138.37,129.128H73.708V95.388h64.66v33.739H138.37z"/>
	</g>
	<g>
		<path fill="none" stroke="#000000" stroke-width="8" stroke-miterlimit="10" d="M84.146,87.838
			c2.816-11.122,11.685-16.833,22.189-16.833c12.768,0,23.119,10.799,23.119,25.606"/>
		<path d="M106.959,101.733c-4.237,0-7.671,3.775-7.671,8.434s3.436,14.46,7.671,14.46s7.671-9.802,7.671-14.46
			C114.63,105.51,111.197,101.733,106.959,101.733z M139.29,130.049H74.628V96.309h64.662V130.049L139.29,130.049z"/>
	</g>
	<g>
		<path fill="none" stroke="#000000" stroke-width="8" stroke-miterlimit="10" d="M85.067,88.759
			c2.816-11.122,11.685-16.833,22.188-16.833c12.77,0,23.12,10.799,23.12,25.605"/>
		<path d="M107.88,102.654c-4.237,0-7.672,3.775-7.672,8.434s3.436,14.46,7.672,14.46c4.235,0,7.671-9.802,7.671-14.46
			S112.116,102.654,107.88,102.654z M140.212,130.969H75.549V97.23h64.661v33.738H140.212z"/>
	</g>
	<g>
		<path fill="none" stroke="#000000" stroke-width="8" stroke-miterlimit="10" d="M85.988,89.679
			c2.816-11.122,11.685-16.833,22.188-16.833c12.769,0,23.12,10.798,23.12,25.606"/>
		<path d="M108.801,103.575c-4.237,0-7.672,3.774-7.672,8.433s3.436,14.461,7.672,14.461c4.235,0,7.671-9.803,7.671-14.461
			C116.472,107.351,113.037,103.575,108.801,103.575z M141.132,131.89H76.47V98.15h64.661L141.132,131.89L141.132,131.89z"/>
	</g>
	<g>
		<path fill="none" stroke="#000000" stroke-width="8" stroke-miterlimit="10" d="M86.908,90.599
			c2.816-11.121,11.685-16.832,22.188-16.832c12.769,0,23.12,10.798,23.12,25.605"/>
		<path d="M109.722,104.496c-4.237,0-7.672,3.775-7.672,8.434s3.436,14.459,7.672,14.459c4.235,0,7.671-9.801,7.671-14.459
			S113.958,104.496,109.722,104.496z M142.053,132.81H77.391V99.071h64.661L142.053,132.81L142.053,132.81z"/>
	</g>
	<g>
		<path fill="none" stroke="#000000" stroke-width="8" stroke-miterlimit="10" d="M87.829,91.52
			c2.816-11.122,11.685-16.833,22.188-16.833c12.769,0,23.12,10.799,23.12,25.606"/>
		<path d="M110.643,105.416c-4.237,0-7.673,3.775-7.673,8.434s3.437,14.46,7.673,14.46c4.235,0,7.671-9.802,7.671-14.46
			C118.314,109.193,114.878,105.416,110.643,105.416z M142.974,133.731H78.312V99.992h64.661L142.974,133.731L142.974,133.731z"/>
	</g>
	<g>
		<path fill="none" stroke="#000000" stroke-width="8" stroke-miterlimit="10" d="M88.749,92.441
			c2.817-11.122,11.686-16.833,22.189-16.833c12.768,0,23.119,10.799,23.119,25.606"/>
		<path d="M111.563,106.337c-4.237,0-7.671,3.775-7.671,8.434s3.436,14.46,7.671,14.46s7.671-9.802,7.671-14.46
			C119.234,110.113,115.799,106.337,111.563,106.337z M143.894,134.652H79.232v-33.739h64.662V134.652L143.894,134.652z"/>
	</g>
	<g>
		<path fill="none" stroke="#000000" stroke-width="8" stroke-miterlimit="10" d="M89.671,93.362
			c2.815-11.122,11.684-16.833,22.188-16.833c12.77,0,23.121,10.799,23.121,25.606"/>
		<path d="M112.484,107.258c-4.237,0-7.672,3.775-7.672,8.434s3.436,14.46,7.672,14.46c4.235,0,7.671-9.802,7.671-14.46
			C120.155,111.034,116.72,107.258,112.484,107.258z M144.816,135.573H80.153v-33.739h64.661v33.739H144.816z"/>
	</g>
	<g>
		<path fill="none" stroke="#000000" stroke-width="8" stroke-miterlimit="10" d="M90.591,94.283
			c2.816-11.122,11.685-16.834,22.188-16.834c12.769,0,23.12,10.799,23.12,25.607"/>
		<path d="M113.405,108.178c-4.237,0-7.672,3.775-7.672,8.433c0,4.659,3.436,14.461,7.672,14.461c4.235,0,7.671-9.802,7.671-14.461
			C121.075,111.955,117.641,108.178,113.405,108.178z M145.736,136.494H81.073v-33.739h64.661L145.736,136.494L145.736,136.494z"/>
	</g>
	<g>
		<path fill="none" stroke="#000000" stroke-width="8" stroke-miterlimit="10" d="M91.512,95.204
			c2.816-11.122,11.685-16.833,22.188-16.833c12.769,0,23.12,10.798,23.12,25.605"/>
		<path d="M114.325,109.099c-4.237,0-7.672,3.775-7.672,8.433c0,4.659,3.436,14.46,7.672,14.46c4.235,0,7.671-9.801,7.671-14.46
			C121.996,112.875,118.562,109.099,114.325,109.099z M146.656,137.415H81.994v-33.739h64.661L146.656,137.415L146.656,137.415z"/>
	</g>
	<g>
		<path fill="none" stroke="#000000" stroke-width="8" stroke-miterlimit="10" d="M92.433,96.125
			c2.816-11.123,11.684-16.834,22.188-16.834c12.769,0,23.12,10.8,23.12,25.607"/>
		<path d="M115.246,110.019c-4.237,0-7.672,3.775-7.672,8.434s3.435,14.461,7.672,14.461c4.235,0,7.671-9.803,7.671-14.461
			C122.917,113.796,119.483,110.019,115.246,110.019z M147.577,138.336H82.915v-33.74h64.661L147.577,138.336L147.577,138.336z"/>
	</g>
	<g>
		<path fill="none" stroke="#000000" stroke-width="8" stroke-miterlimit="10" d="M93.353,97.045
			c2.816-11.122,11.686-16.833,22.189-16.833c12.769,0,23.119,10.8,23.119,25.606"/>
		<path d="M116.167,110.94c-4.238,0-7.672,3.776-7.672,8.434c0,4.658,3.436,14.46,7.672,14.46c4.235,0,7.67-9.802,7.67-14.46
			C123.837,114.717,120.404,110.94,116.167,110.94z M148.498,139.256H83.836v-33.739h64.661L148.498,139.256L148.498,139.256z"/>
	</g>
	<g>
		<path fill="none" stroke="#000000" stroke-width="8" stroke-miterlimit="10" d="M94.275,97.966
			c2.816-11.122,11.684-16.833,22.188-16.833c12.77,0,23.121,10.799,23.121,25.606"/>
		<path d="M117.088,111.861c-4.237,0-7.673,3.775-7.673,8.434s3.436,14.46,7.673,14.46c4.235,0,7.671-9.802,7.671-14.46
			C124.759,115.637,121.323,111.861,117.088,111.861z M149.419,140.177H84.757v-33.739h64.66v33.739H149.419z"/>
	</g>
	<g>
		<path fill="none" stroke="#000000" stroke-width="8" stroke-miterlimit="10" d="M95.195,98.886
			c2.816-11.122,11.685-16.833,22.188-16.833c12.769,0,23.12,10.799,23.12,25.606"/>
		<path d="M118.009,112.782c-4.238,0-7.673,3.775-7.673,8.434s3.436,14.46,7.673,14.46c4.234,0,7.67-9.802,7.67-14.46
			C125.679,116.558,122.244,112.782,118.009,112.782z M150.339,141.097H85.677v-33.739h64.661L150.339,141.097L150.339,141.097z"/>
	</g>
	<g>
		<path fill="none" stroke="#000000" stroke-width="8" stroke-miterlimit="10" d="M96.115,99.807
			c2.816-11.122,11.685-16.833,22.188-16.833c12.769,0,23.12,10.799,23.12,25.606"/>
		<path d="M118.929,113.703c-4.237,0-7.672,3.775-7.672,8.434s3.436,14.459,7.672,14.459c4.235,0,7.671-9.801,7.671-14.459
			C126.6,117.479,123.165,113.703,118.929,113.703z M151.26,142.017H86.598v-33.738h64.661L151.26,142.017L151.26,142.017z"/>
	</g>
	<g>
		<path fill="none" stroke="#000000" stroke-width="8" stroke-miterlimit="10" d="M97.036,100.728
			c2.816-11.123,11.685-16.833,22.188-16.833c12.769,0,23.12,10.799,23.12,25.606"/>
		<path d="M119.85,114.624c-4.237,0-7.672,3.774-7.672,8.433s3.436,14.461,7.672,14.461c4.235,0,7.671-9.803,7.671-14.461
			C127.521,118.4,124.086,114.624,119.85,114.624z M152.181,142.939H87.519v-33.74h64.661L152.181,142.939L152.181,142.939z"/>
	</g>
	<g>
		<path fill="none" stroke="#000000" stroke-width="8" stroke-miterlimit="10" d="M97.956,101.648
			c2.817-11.122,11.686-16.832,22.189-16.832c12.769,0,23.12,10.799,23.12,25.606"/>
		<path d="M120.771,115.545c-4.237,0-7.672,3.774-7.672,8.434c0,4.657,3.436,14.459,7.672,14.459c4.235,0,7.671-9.802,7.671-14.459
			C128.442,119.32,125.007,115.545,120.771,115.545z M153.102,143.859H88.44V110.12h64.661L153.102,143.859L153.102,143.859z"/>
	</g>
	<g>
		<path fill="none" stroke="#000000" stroke-width="8" stroke-miterlimit="10" d="M98.878,102.569
			c2.816-11.122,11.684-16.833,22.188-16.833c12.77,0,23.121,10.799,23.121,25.606"/>
		<path d="M121.692,116.465c-4.237,0-7.673,3.775-7.673,8.434s3.437,14.46,7.673,14.46c4.235,0,7.671-9.802,7.671-14.46
			C129.363,120.241,125.928,116.465,121.692,116.465z M154.022,144.78H89.361v-33.739h64.66L154.022,144.78L154.022,144.78z"/>
	</g>
	<g>
		<path fill="none" stroke="#000000" stroke-width="8" stroke-miterlimit="10" d="M99.798,103.49
			c2.816-11.122,11.686-16.833,22.188-16.833c12.769,0,23.12,10.799,23.12,25.606"/>
		<path d="M122.613,117.385c-4.238,0-7.672,3.775-7.672,8.434s3.436,14.46,7.672,14.46c4.234,0,7.67-9.802,7.67-14.46
			C130.282,121.162,126.849,117.385,122.613,117.385z M154.943,145.701H90.281v-33.739h64.662V145.701L154.943,145.701z"/>
	</g>
	<g>
		<path fill="none" stroke="#000000" stroke-width="8" stroke-miterlimit="10" d="M100.719,104.411
			c2.816-11.122,11.685-16.833,22.188-16.833c12.769,0,23.12,10.799,23.12,25.606"/>
		<path d="M123.532,118.306c-4.237,0-7.672,3.775-7.672,8.434s3.436,14.46,7.672,14.46c4.235,0,7.671-9.802,7.671-14.46
			C131.203,122.083,127.769,118.306,123.532,118.306z M155.864,146.622H91.201v-33.739h64.661L155.864,146.622L155.864,146.622z"/>
	</g>
	<g>
		<path fill="none" stroke="#000000" stroke-width="8" stroke-miterlimit="10" d="M101.64,105.332
			c2.816-11.122,11.685-16.833,22.188-16.833c12.769,0,23.12,10.799,23.12,25.606"/>
		<path d="M124.453,119.227c-4.237,0-7.672,3.775-7.672,8.433c0,4.659,3.436,14.461,7.672,14.461c4.235,0,7.671-9.802,7.671-14.461
			C132.124,123.004,128.69,119.227,124.453,119.227z M156.784,147.543H92.122v-33.739h64.661L156.784,147.543L156.784,147.543z"/>
	</g>
	<g>
		<path fill="none" stroke="#000000" stroke-width="8" stroke-miterlimit="10" d="M102.56,106.252
			c2.816-11.122,11.686-16.832,22.189-16.832c12.769,0,23.12,10.799,23.12,25.605"/>
		<path d="M125.374,120.148c-4.237,0-7.672,3.775-7.672,8.433c0,4.659,3.436,14.46,7.672,14.46c4.235,0,7.671-9.801,7.671-14.46
			C133.045,123.924,129.611,120.148,125.374,120.148z M157.705,148.463H93.043v-33.738h64.661L157.705,148.463L157.705,148.463z"/>
	</g>
	<g>
		<path fill="none" stroke="#000000" stroke-width="8" stroke-miterlimit="10" d="M103.482,107.174
			c2.816-11.123,11.685-16.834,22.188-16.834c12.77,0,23.121,10.799,23.121,25.606"/>
		<path d="M126.295,121.068c-4.237,0-7.673,3.775-7.673,8.434s3.436,14.46,7.673,14.46c4.235,0,7.671-9.802,7.671-14.46
			C133.966,124.845,130.531,121.068,126.295,121.068z M158.626,149.385H93.964v-33.74h64.661L158.626,149.385L158.626,149.385z"/>
	</g>
	<g>
		<path fill="none" stroke="#000000" stroke-width="8" stroke-miterlimit="10" d="M104.403,108.094
			c2.815-11.122,11.684-16.833,22.188-16.833c12.768,0,23.119,10.799,23.119,25.606"/>
		<path d="M127.216,121.989c-4.238,0-7.672,3.775-7.672,8.434s3.435,14.46,7.672,14.46c4.235,0,7.67-9.802,7.67-14.46
			C134.886,125.765,131.451,121.989,127.216,121.989z M159.546,150.304H94.884v-33.739h64.662V150.304L159.546,150.304z"/>
	</g>
	<g>
		<path fill="none" stroke="#000000" stroke-width="8" stroke-miterlimit="10" d="M105.323,109.014
			c2.817-11.122,11.685-16.833,22.188-16.833c12.769,0,23.12,10.799,23.12,25.606"/>
		<path d="M128.136,122.91c-4.237,0-7.672,3.775-7.672,8.434s3.436,14.46,7.672,14.46c4.235,0,7.671-9.802,7.671-14.46
			C135.807,126.686,132.372,122.91,128.136,122.91z M160.467,151.225H95.805v-33.739h64.661L160.467,151.225L160.467,151.225z"/>
	</g>
	<g>
		<path fill="none" stroke="#000000" stroke-width="8" stroke-miterlimit="10" d="M106.243,109.935
			c2.816-11.122,11.685-16.833,22.188-16.833c12.769,0,23.12,10.799,23.12,25.606"/>
		<path d="M129.057,123.831c-4.237,0-7.672,3.775-7.672,8.434s3.436,14.46,7.672,14.46c4.235,0,7.671-9.802,7.671-14.46
			C136.728,127.607,133.293,123.831,129.057,123.831z M161.388,152.146H96.726v-33.739h64.661L161.388,152.146L161.388,152.146z"/>
	</g>
	<g>
		<path fill="none" stroke="#000000" stroke-width="8" stroke-miterlimit="10" d="M107.164,110.855
			c2.816-11.121,11.685-16.832,22.188-16.832c12.769,0,23.12,10.799,23.12,25.605"/>
		<path d="M129.978,124.752c-4.237,0-7.672,3.775-7.672,8.434s3.436,14.46,7.672,14.46c4.235,0,7.671-9.802,7.671-14.46
			C137.649,128.528,134.214,124.752,129.978,124.752z M162.309,153.067H97.647v-33.739h64.661L162.309,153.067L162.309,153.067z"/>
	</g>
	<g>
		<path fill="none" stroke="#000000" stroke-width="8" stroke-miterlimit="10" d="M108.085,111.777
			c2.816-11.122,11.685-16.833,22.188-16.833c12.769,0,23.12,10.798,23.12,25.606"/>
		<path d="M130.899,125.673c-4.237,0-7.673,3.774-7.673,8.433c0,4.659,3.437,14.461,7.673,14.461c4.235,0,7.671-9.802,7.671-14.461
			C138.57,129.449,135.135,125.673,130.899,125.673z M163.23,153.987H98.568v-33.739h64.661L163.23,153.987L163.23,153.987z"/>
	</g>
	<g>
		<path fill="none" stroke="#000000" stroke-width="8" stroke-miterlimit="10" d="M109.006,112.697
			c2.816-11.121,11.685-16.832,22.188-16.832c12.769,0,23.12,10.798,23.12,25.605"/>
		<path d="M131.82,126.594c-4.238,0-7.672,3.775-7.672,8.434s3.436,14.459,7.672,14.459c4.234,0,7.671-9.801,7.671-14.459
			S136.056,126.594,131.82,126.594z M164.15,154.908H99.489v-33.739h64.661V154.908L164.15,154.908z"/>
	</g>
	<g>
		<path fill="none" stroke="#000000" stroke-width="8" stroke-miterlimit="10" d="M109.926,113.618
			c2.816-11.122,11.685-16.833,22.188-16.833c12.77,0,23.12,10.799,23.12,25.606"/>
		<path d="M132.74,127.513c-4.236,0-7.672,3.775-7.672,8.434s3.436,14.46,7.672,14.46c4.235,0,7.672-9.802,7.672-14.46
			C140.411,131.29,136.976,127.513,132.74,127.513z M165.071,155.829h-64.662V122.09h64.661L165.071,155.829L165.071,155.829z"/>
	</g>
	<g>
		<path fill="none" stroke="#000000" stroke-width="8" stroke-miterlimit="10" d="M110.847,114.539
			c2.816-11.122,11.685-16.833,22.188-16.833c12.769,0,23.12,10.799,23.12,25.606"/>
		<path d="M133.66,128.434c-4.237,0-7.672,3.775-7.672,8.434s3.436,14.46,7.672,14.46c4.235,0,7.671-9.802,7.671-14.46
			C141.331,132.211,137.897,128.434,133.66,128.434z M165.991,156.75h-64.662V123.01h64.661L165.991,156.75L165.991,156.75z"/>
	</g>
	<g>
		<path fill="none" stroke="#000000" stroke-width="8" stroke-miterlimit="10" d="M111.768,115.46
			c2.816-11.122,11.685-16.833,22.188-16.833c12.769,0,23.12,10.799,23.12,25.606"/>
		<path d="M134.581,129.355c-4.237,0-7.672,3.775-7.672,8.434s3.436,14.46,7.672,14.46c4.235,0,7.671-9.802,7.671-14.46
			C142.252,133.132,138.818,129.355,134.581,129.355z M166.912,157.671H102.25v-33.739h64.661L166.912,157.671L166.912,157.671z"/>
	</g>
	<g>
		<path fill="none" stroke="#000000" stroke-width="8" stroke-miterlimit="10" d="M112.689,116.381
			c2.816-11.122,11.685-16.833,22.188-16.833c12.769,0,23.12,10.798,23.12,25.606"/>
		<path d="M135.502,130.275c-4.237,0-7.672,3.776-7.672,8.434c0,4.659,3.436,14.461,7.672,14.461c4.235,0,7.671-9.802,7.671-14.461
			C143.173,134.052,139.739,130.275,135.502,130.275z M167.833,158.592h-64.662v-33.739h64.661L167.833,158.592L167.833,158.592z"/>
	</g>
	<g>
		<path fill="none" stroke="#000000" stroke-width="8" stroke-miterlimit="10" d="M113.61,117.301
			c2.816-11.121,11.685-16.832,22.188-16.832c12.768,0,23.12,10.798,23.12,25.606"/>
		<path d="M136.423,131.197c-4.237,0-7.672,3.774-7.672,8.433c0,4.659,3.436,14.46,7.672,14.46c4.235,0,7.671-9.801,7.671-14.46
			C144.094,134.972,140.659,131.197,136.423,131.197z M168.754,159.511h-64.662v-33.739h64.661L168.754,159.511L168.754,159.511z"/>
	</g>
	<g>
		<path fill="none" stroke="#000000" stroke-width="8" stroke-miterlimit="10" d="M114.53,118.221
			c2.817-11.122,11.685-16.833,22.189-16.833c12.769,0,23.119,10.799,23.119,25.606"/>
		<path d="M137.343,132.117c-4.236,0-7.672,3.775-7.672,8.434s3.437,14.461,7.672,14.461c4.236,0,7.671-9.803,7.671-14.461
			C145.014,135.894,141.579,132.117,137.343,132.117z M169.675,160.433h-64.663v-33.739h64.661v33.739H169.675z"/>
	</g>
	<g>
		<path fill="none" stroke="#000000" stroke-width="8" stroke-miterlimit="10" d="M115.45,119.142
			c2.816-11.122,11.685-16.833,22.188-16.833c12.769,0,23.121,10.799,23.121,25.606"/>
		<path d="M138.264,133.038c-4.237,0-7.671,3.775-7.671,8.434s3.435,14.46,7.671,14.46c4.235,0,7.671-9.802,7.671-14.46
			C145.935,136.814,142.501,133.038,138.264,133.038z M170.595,161.353h-64.662v-33.739h64.661L170.595,161.353L170.595,161.353z"/>
	</g>
	<g>
		<path fill="none" stroke="#000000" stroke-width="8" stroke-miterlimit="10" d="M116.371,120.063
			c2.816-11.122,11.685-16.833,22.188-16.833c12.769,0,23.12,10.799,23.12,25.606"/>
		<path d="M139.185,133.959c-4.237,0-7.672,3.775-7.672,8.434s3.436,14.46,7.672,14.46c4.235,0,7.671-9.802,7.671-14.46
			C146.856,137.735,143.421,133.959,139.185,133.959z M171.516,162.274h-64.662v-33.739h64.661L171.516,162.274L171.516,162.274z"/>
	</g>
	<g>
		<path fill="none" stroke="#000000" stroke-width="8" stroke-miterlimit="10" d="M117.292,120.984
			c2.816-11.122,11.685-16.833,22.188-16.833c12.769,0,23.12,10.799,23.12,25.606"/>
		<path d="M140.106,134.88c-4.237,0-7.672,3.775-7.672,8.434s3.436,14.46,7.672,14.46c4.235,0,7.671-9.802,7.671-14.46
			C147.777,138.656,144.342,134.88,140.106,134.88z M172.437,163.195h-64.662v-33.739h64.661L172.437,163.195L172.437,163.195z"/>
	</g>
	<g>
		<path fill="none" stroke="#000000" stroke-width="8" stroke-miterlimit="10" d="M118.213,121.905
			c2.816-11.122,11.685-16.833,22.188-16.833c12.769,0,23.12,10.799,23.12,25.606"/>
		<path d="M141.027,135.801c-4.237,0-7.672,3.775-7.672,8.434s3.436,14.46,7.672,14.46c4.235,0,7.671-9.802,7.671-14.46
			C148.698,139.577,145.263,135.801,141.027,135.801z M173.358,164.116h-64.662v-33.739h64.661L173.358,164.116L173.358,164.116z"/>
	</g>
	<g>
		<path fill="none" stroke="#000000" stroke-width="8" stroke-miterlimit="10" d="M119.133,122.825
			c2.816-11.122,11.686-16.833,22.188-16.833c12.77,0,23.121,10.8,23.121,25.606"/>
		<path d="M141.948,136.721c-4.238,0-7.673,3.775-7.673,8.433c0,4.658,3.436,14.461,7.673,14.461c4.235,0,7.671-9.803,7.671-14.461
			C149.618,140.497,146.184,136.721,141.948,136.721z M174.279,165.036h-64.663v-33.739h64.662L174.279,165.036L174.279,165.036z"/>
	</g>
	<g>
		<path fill="none" stroke="#000000" stroke-width="8" stroke-miterlimit="10" d="M120.054,123.746
			c2.816-11.122,11.686-16.833,22.189-16.833c12.768,0,23.119,10.8,23.119,25.607"/>
		<path d="M142.867,137.642c-4.236,0-7.671,3.774-7.671,8.434c0,4.657,3.436,14.459,7.671,14.459s7.671-9.802,7.671-14.459
			C150.538,141.418,147.104,137.642,142.867,137.642z M175.199,165.957h-64.663v-33.738h64.662L175.199,165.957L175.199,165.957z"/>
	</g>
	<g>
		<path fill="none" stroke="#000000" stroke-width="8" stroke-miterlimit="10" d="M120.975,124.667
			c2.816-11.122,11.685-16.833,22.188-16.833c12.769,0,23.12,10.799,23.12,25.606"/>
		<path d="M143.788,138.562c-4.237,0-7.672,3.775-7.672,8.434s3.436,14.46,7.672,14.46c4.235,0,7.671-9.802,7.671-14.46
			C151.459,142.339,148.025,138.562,143.788,138.562z M176.119,166.878h-64.662v-33.739h64.661L176.119,166.878L176.119,166.878z"/>
	</g>
	<g>
		<path fill="none" stroke="#000000" stroke-width="8" stroke-miterlimit="10" d="M121.896,125.588
			c2.816-11.122,11.685-16.833,22.188-16.833c12.769,0,23.12,10.799,23.12,25.606"/>
		<path d="M144.709,139.483c-4.237,0-7.672,3.775-7.672,8.434s3.436,14.46,7.672,14.46c4.235,0,7.671-9.802,7.671-14.46
			C152.38,143.26,148.946,139.483,144.709,139.483z M177.04,167.799h-64.662v-33.739h64.661L177.04,167.799L177.04,167.799z"/>
	</g>
	<g>
		<path fill="none" stroke="#000000" stroke-width="8" stroke-miterlimit="10" d="M122.817,126.509
			c2.816-11.122,11.685-16.833,22.188-16.833c12.769,0,23.12,10.799,23.12,25.606"/>
		<path d="M145.63,140.404c-4.237,0-7.672,3.775-7.672,8.434s3.436,14.46,7.672,14.46c4.235,0,7.671-9.802,7.671-14.46
			C153.301,144.18,149.866,140.404,145.63,140.404z M177.961,168.719h-64.662V134.98h64.661L177.961,168.719L177.961,168.719z"/>
	</g>
	<g>
		<path fill="none" stroke="#000000" stroke-width="8" stroke-miterlimit="10" d="M123.738,127.428
			c2.816-11.121,11.685-16.832,22.188-16.832c12.769,0,23.12,10.799,23.12,25.606"/>
		<path d="M146.551,141.324c-4.237,0-7.673,3.776-7.673,8.434c0,4.659,3.437,14.46,7.673,14.46c4.235,0,7.671-9.801,7.671-14.46
			C154.222,145.101,150.787,141.324,146.551,141.324z M178.882,169.64H114.22v-33.739h64.661L178.882,169.64L178.882,169.64z"/>
	</g>
	<g>
		<path fill="none" stroke="#000000" stroke-width="8" stroke-miterlimit="10" d="M124.657,128.35
			c2.817-11.123,11.685-16.833,22.188-16.833c12.77,0,23.121,10.799,23.121,25.605"/>
		<path d="M147.471,142.246c-4.237,0-7.671,3.775-7.671,8.433c0,4.658,3.436,14.461,7.671,14.461c4.236,0,7.672-9.803,7.672-14.461
			C155.143,146.022,151.708,142.246,147.471,142.246z M179.803,170.56H115.14v-33.739h64.662L179.803,170.56L179.803,170.56z"/>
	</g>
	<g>
		<path fill="none" stroke="#000000" stroke-width="8" stroke-miterlimit="10" d="M125.578,129.27
			c2.817-11.122,11.685-16.833,22.188-16.833c12.769,0,23.12,10.799,23.12,25.606"/>
		<path d="M148.393,143.166c-4.238,0-7.673,3.776-7.673,8.434c0,4.658,3.436,14.46,7.673,14.46c4.234,0,7.67-9.802,7.67-14.46
			C156.063,146.943,152.628,143.166,148.393,143.166z M180.723,171.481h-64.662v-33.738h64.661L180.723,171.481L180.723,171.481z"/>
	</g>
	<g>
		<path fill="none" stroke="#000000" stroke-width="8" stroke-miterlimit="10" d="M126.499,130.191
			c2.816-11.122,11.685-16.833,22.188-16.833c12.769,0,23.12,10.799,23.12,25.606"/>
		<path d="M149.313,144.087c-4.237,0-7.671,3.775-7.671,8.434s3.435,14.46,7.671,14.46c4.235,0,7.671-9.802,7.671-14.46
			C156.984,147.863,153.549,144.087,149.313,144.087z M181.644,172.402h-64.662v-33.739h64.661L181.644,172.402L181.644,172.402z"/>
	</g>
	<g>
		<path fill="none" stroke="#000000" stroke-width="8" stroke-miterlimit="10" d="M127.42,131.112
			c2.816-11.122,11.685-16.833,22.188-16.833c12.769,0,23.12,10.799,23.12,25.606"/>
		<path d="M150.234,145.008c-4.237,0-7.672,3.775-7.672,8.434s3.436,14.46,7.672,14.46c4.235,0,7.671-9.802,7.671-14.46
			C157.905,148.784,154.47,145.008,150.234,145.008z M182.565,173.323h-64.662v-33.739h64.661L182.565,173.323L182.565,173.323z"/>
	</g>
</g>
<g>
	<path fill="none" stroke="#FFFFFF" stroke-width="8" stroke-miterlimit="10" d="M34.427,38.118
		c2.816-11.122,11.685-16.833,22.188-16.833c12.769,0,23.12,10.799,23.12,25.606"/>
	<path fill="#FFFFFF" d="M89.572,80.329H24.909V46.59h64.661L89.572,80.329L89.572,80.329z M57.24,52.013
		c-4.237,0-7.672,3.775-7.672,8.434s3.436,14.46,7.672,14.46c4.235,0,7.671-9.802,7.671-14.46
		C64.911,55.79,61.477,52.013,57.24,52.013z"/>
</g>
</svg>
